<mxfile host="app.diagrams.net" modified="2024-06-05T04:45:06.977Z" agent="Mozilla/5.0 (Macintosh; Intel Mac OS X 10_15_7) AppleWebKit/605.1.15 (KHTML, like Gecko) Version/16.5 Safari/605.1.15" etag="KcYZx4_1doJS_FkBG7_a" version="24.4.8" type="device">
  <diagram name="Page-1" id="jtkIUQe9VHLAe4Pld4V-">
    <mxGraphModel dx="1811" dy="1836" grid="1" gridSize="10" guides="1" tooltips="1" connect="1" arrows="1" fold="1" page="1" pageScale="1" pageWidth="827" pageHeight="1169" math="0" shadow="0">
      <root>
        <mxCell id="0" />
        <mxCell id="1" parent="0" />
        <UserObject label="" plantUmlData="{&#xa;  &quot;data&quot;: &quot;@startuml\n\npackage \&quot;edu.depaul\&quot; {\n    class User {\n        -username: String\n        -password: String\n        +User(username: String, password: String)\n        +getUsername(): String\n        +getPassword(): String\n    }\n\n    class Product {\n        -name: String\n        -price: double\n        +Product(name: String, price: double)\n        +getName(): String\n        +getPrice(): double\n    }\n\n    class Electronics extends Product {\n    }\n\n    class Clothing extends Product {\n    }\n\n    class ProductFactory {\n        +createProduct(type: String, name: String, price: double): Product\n    }\n\n    class ShoppingCart {\n        -products: List&lt;Product&gt;\n        +getInstance(): ShoppingCart\n        +addProduct(product: Product): void\n        +removeProduct(product: Product): void\n        +getProducts(): List&lt;Product&gt;\n    }\n\n    class CartBuilder {\n        -cart: ShoppingCart\n        +addProduct(product: Product): CartBuilder\n        +removeProduct(product: Product): CartBuilder\n        +build(): ShoppingCart\n    }\n\n    class Order {\n        -products: List&lt;Product&gt;\n        -customer: String\n        +Order(products: List&lt;Product&gt;, customer: String)\n    }\n\n    class OrderService {\n        +placeOrder(customer: String): void\n    }\n\n    class PaymentService {\n        +processPayment(amount: double): void\n    }\n\n    class Logger {\n        +log(message: String): void\n    }\n\n    class AuthenticationService {\n        +register(username: String, password: String): boolean\n        +login(username: String, password: String): boolean\n    }\n\n    class ShoppingAppFunctions {\n        +register(scanner: Scanner): void\n        +login(scanner: Scanner): void\n        +browseProducts(): void\n        +addProductToCart(scanner: Scanner): void\n        +removeProductFromCart(scanner: Scanner): void\n        +viewCart(): void\n        +placeOrder(scanner: Scanner): void\n    }\n\n    class ShoppingAppUI {\n        +run(): void\n    }\n\n    class MainClass {\n        +main(args: String[]): void\n    }\n\n    ShoppingCart --|&gt; Product\n    CartBuilder --&gt; ShoppingCart\n    ProductFactory --&gt; Product\n    ShoppingAppFunctions --&gt; ShoppingCart\n    ShoppingAppFunctions --&gt; AuthenticationService\n    ShoppingAppFunctions --&gt; Logger\n    ShoppingAppFunctions --&gt; OrderService\n    ShoppingAppFunctions --&gt; PaymentService\n    ShoppingAppFunctions --&gt; ProductFactory\n    ShoppingAppUI --&gt; ShoppingAppFunctions\n    MainClass --&gt; ShoppingAppUI\n    OrderService --&gt; Order\n    Order --&gt; ShoppingCart\n    PaymentService --&gt; ShoppingCart\n}\n\n@enduml\n&quot;,&#xa;  &quot;format&quot;: &quot;svg&quot;&#xa;}" id="tI-qfBZS8vv6xPQSJWOr-1">
          <mxCell style="shape=image;noLabel=1;verticalAlign=top;aspect=fixed;imageAspect=0;image=data:image/svg+xml,PD94bWwgdmVyc2lvbj0iMS4wIiBlbmNvZGluZz0idXMtYXNjaWkiIHN0YW5kYWxvbmU9Im5vIj8+PHN2ZyB4bWxucz0iaHR0cDovL3d3dy53My5vcmcvMjAwMC9zdmciIHhtbG5zOnhsaW5rPSJodHRwOi8vd3d3LnczLm9yZy8xOTk5L3hsaW5rIiBjb250ZW50U3R5bGVUeXBlPSJ0ZXh0L2NzcyIgaGVpZ2h0PSIxMzY2cHgiIHByZXNlcnZlQXNwZWN0UmF0aW89Im5vbmUiIHN0eWxlPSJ3aWR0aDoxMjIycHg7aGVpZ2h0OjEzNjZweDtiYWNrZ3JvdW5kOiNGRkZGRkY7IiB2ZXJzaW9uPSIxLjEiIHZpZXdCb3g9IjAgMCAxMjIyIDEzNjYiIHdpZHRoPSIxMjIycHgiIHpvb21BbmRQYW49Im1hZ25pZnkiPjxkZWZzLz48Zz48IS0tY2x1c3RlciBlZHUtLT48ZyBpZD0iY2x1c3Rlcl9lZHUiPjxwYXRoIGQ9Ik04LjUsNiBMMzAuNSw2IEEzLjc1LDMuNzUgMCAwIDEgMzMsOC41IEw0MCwyNi45ODQ0IEwxMjEyLjUsMjYuOTg0NCBBMi41LDIuNSAwIDAgMSAxMjE1LDI5LjQ4NDQgTDEyMTUsMTM1Ni41IEEyLjUsMi41IDAgMCAxIDEyMTIuNSwxMzU5IEw4LjUsMTM1OSBBMi41LDIuNSAwIDAgMSA2LDEzNTYuNSBMNiw4LjUgQTIuNSwyLjUgMCAwIDEgOC41LDYgIiBmaWxsPSJub25lIiBzdHlsZT0ic3Ryb2tlOiMwMDAwMDA7c3Ryb2tlLXdpZHRoOjEuNTsiLz48bGluZSBzdHlsZT0ic3Ryb2tlOiMwMDAwMDA7c3Ryb2tlLXdpZHRoOjEuNTsiIHgxPSI2IiB4Mj0iNDAiIHkxPSIyNi45ODQ0IiB5Mj0iMjYuOTg0NCIvPjx0ZXh0IGZpbGw9IiMwMDAwMDAiIGZvbnQtZmFtaWx5PSJzYW5zLXNlcmlmIiBmb250LXNpemU9IjE0IiBmb250LXdlaWdodD0iYm9sZCIgbGVuZ3RoQWRqdXN0PSJzcGFjaW5nIiB0ZXh0TGVuZ3RoPSIyMSIgeD0iMTAiIHk9IjIxLjIzNDQiPmVkdTwvdGV4dD48L2c+PCEtLWNsdXN0ZXIgZGVwYXVsLS0+PGcgaWQ9ImNsdXN0ZXJfZGVwYXVsIj48cGF0aCBkPSJNMzIuNSw0NyBMNzUuNSw0NyBBMy43NSwzLjc1IDAgMCAxIDc4LDQ5LjUgTDg1LDY3Ljk4NDQgTDExODguNSw2Ny45ODQ0IEEyLjUsMi41IDAgMCAxIDExOTEsNzAuNDg0NCBMMTE5MSwxMzMyLjUgQTIuNSwyLjUgMCAwIDEgMTE4OC41LDEzMzUgTDMyLjUsMTMzNSBBMi41LDIuNSAwIDAgMSAzMCwxMzMyLjUgTDMwLDQ5LjUgQTIuNSwyLjUgMCAwIDEgMzIuNSw0NyAiIGZpbGw9Im5vbmUiIHN0eWxlPSJzdHJva2U6IzAwMDAwMDtzdHJva2Utd2lkdGg6MS41OyIvPjxsaW5lIHN0eWxlPSJzdHJva2U6IzAwMDAwMDtzdHJva2Utd2lkdGg6MS41OyIgeDE9IjMwIiB4Mj0iODUiIHkxPSI2Ny45ODQ0IiB5Mj0iNjcuOTg0NCIvPjx0ZXh0IGZpbGw9IiMwMDAwMDAiIGZvbnQtZmFtaWx5PSJzYW5zLXNlcmlmIiBmb250LXNpemU9IjE0IiBmb250LXdlaWdodD0iYm9sZCIgbGVuZ3RoQWRqdXN0PSJzcGFjaW5nIiB0ZXh0TGVuZ3RoPSI0MiIgeD0iMzQiIHk9IjYyLjIzNDQiPmRlcGF1bDwvdGV4dD48L2c+PCEtLWNsYXNzIFVzZXItLT48ZyBpZD0iZWxlbV9Vc2VyIj48cmVjdCBjb2RlTGluZT0iMiIgZmlsbD0iI0YxRjFGMSIgaGVpZ2h0PSIxMjIuOTIxOSIgaWQ9IlVzZXIiIHJ4PSIyLjUiIHJ5PSIyLjUiIHN0eWxlPSJzdHJva2U6IzE4MTgxODtzdHJva2Utd2lkdGg6MC41OyIgd2lkdGg9IjMxMCIgeD0iNzM5IiB5PSI4MCIvPjxlbGxpcHNlIGN4PSI4NzUuNzUiIGN5PSI5NiIgZmlsbD0iI0FERDFCMiIgcng9IjExIiByeT0iMTEiIHN0eWxlPSJzdHJva2U6IzE4MTgxODtzdHJva2Utd2lkdGg6MS4wOyIvPjxwYXRoIGQ9Ik04NzMuMzc1LDEwMC4yNSBMODczLjM3NSwxMDIgTDg3OC4zMTI1LDEwMiBMODc4LjMxMjUsMTAwLjI1IEw4NzMuMzc1LDEwMC4yNSBaIE04NzQuMDYyNSwxMDAuOTM3NSBRODc0LjA2MjUsMTAwLjkzNzUgODc0LjA2MjUsOTEuNzUgTDg3Mi4zMTI1LDkxLjc1IFE4NzIuMzEyNSw5MS43NSA4NzIuMzEyNSwxMDAuOTM3NSBMODc0LjA2MjUsMTAwLjkzNzUgWiBNODc3LjYyNSwxMDAuOTM3NSBMODc5LjM3NSwxMDAuOTM3NSBRODc5LjM3NSwxMDAuOTM3NSA4NzkuMzc1LDk4LjEyNSBMODc3LjYyNSw5OC4xMjUgUTg3Ny42MjUsOTguMTI1IDg3Ny42MjUsMTAwLjkzNzUgWiBNODc3LjYyNSw5MS43NSBRODc3LjYyNSw5MS43NSA4NzcuNjI1LDk0LjU2MjUgTDg3OS4zNzUsOTQuNTYyNSBRODc5LjM3NSw5NC41NjI1IDg3OS4zNzUsOTEuNzUgTDg3Ny42MjUsOTEuNzUgWiBNODczLjM3NSw5Mi40Mzc1IEw4NzguMzEyNSw5Mi40Mzc1IEw4NzguMzEyNSw5MC42ODc1IEw4NzMuMzc1LDkwLjY4NzUgTDg3My4zNzUsOTIuNDM3NSBaICIgZmlsbD0iIzAwMDAwMCIvPjx0ZXh0IGZpbGw9IiMwMDAwMDAiIGZvbnQtZmFtaWx5PSJzYW5zLXNlcmlmIiBmb250LXNpemU9IjE0IiBsZW5ndGhBZGp1c3Q9InNwYWNpbmciIHRleHRMZW5ndGg9IjI4IiB4PSI4OTYuMjUiIHk9IjEwMS43NDIyIj5Vc2VyPC90ZXh0PjxsaW5lIHN0eWxlPSJzdHJva2U6IzE4MTgxODtzdHJva2Utd2lkdGg6MC41OyIgeDE9Ijc0MCIgeDI9IjEwNDgiIHkxPSIxMTIiIHkyPSIxMTIiLz48cmVjdCBmaWxsPSJub25lIiBoZWlnaHQ9IjYiIHN0eWxlPSJzdHJva2U6I0M4MjkzMDtzdHJva2Utd2lkdGg6MS4wOyIgd2lkdGg9IjYiIHg9Ijc0NyIgeT0iMTIxLjk5MjIiLz48dGV4dCBmaWxsPSIjMDAwMDAwIiBmb250LWZhbWlseT0ic2Fucy1zZXJpZiIgZm9udC1zaXplPSIxNCIgbGVuZ3RoQWRqdXN0PSJzcGFjaW5nIiB0ZXh0TGVuZ3RoPSIxMTMiIHg9Ijc1OSIgeT0iMTI5LjIzNDQiPnVzZXJuYW1lOiBTdHJpbmc8L3RleHQ+PHJlY3QgZmlsbD0ibm9uZSIgaGVpZ2h0PSI2IiBzdHlsZT0ic3Ryb2tlOiNDODI5MzA7c3Ryb2tlLXdpZHRoOjEuMDsiIHdpZHRoPSI2IiB4PSI3NDciIHk9IjEzNi45NzY2Ii8+PHRleHQgZmlsbD0iIzAwMDAwMCIgZm9udC1mYW1pbHk9InNhbnMtc2VyaWYiIGZvbnQtc2l6ZT0iMTQiIGxlbmd0aEFkanVzdD0ic3BhY2luZyIgdGV4dExlbmd0aD0iMTEzIiB4PSI3NTkiIHk9IjE0NC4yMTg4Ij5wYXNzd29yZDogU3RyaW5nPC90ZXh0PjxsaW5lIHN0eWxlPSJzdHJva2U6IzE4MTgxODtzdHJva2Utd2lkdGg6MC41OyIgeDE9Ijc0MCIgeDI9IjEwNDgiIHkxPSIxNDkuOTY4OCIgeTI9IjE0OS45Njg4Ii8+PGVsbGlwc2UgY3g9Ijc1MCIgY3k9IjE2Mi45NjA5IiBmaWxsPSIjODRCRTg0IiByeD0iMyIgcnk9IjMiIHN0eWxlPSJzdHJva2U6IzAzODA0ODtzdHJva2Utd2lkdGg6MS4wOyIvPjx0ZXh0IGZpbGw9IiMwMDAwMDAiIGZvbnQtZmFtaWx5PSJzYW5zLXNlcmlmIiBmb250LXNpemU9IjE0IiBsZW5ndGhBZGp1c3Q9InNwYWNpbmciIHRleHRMZW5ndGg9IjI4NCIgeD0iNzU5IiB5PSIxNjcuMjAzMSI+VXNlcih1c2VybmFtZTogU3RyaW5nLCBwYXNzd29yZDogU3RyaW5nKTwvdGV4dD48ZWxsaXBzZSBjeD0iNzUwIiBjeT0iMTc3Ljk0NTMiIGZpbGw9IiM4NEJFODQiIHJ4PSIzIiByeT0iMyIgc3R5bGU9InN0cm9rZTojMDM4MDQ4O3N0cm9rZS13aWR0aDoxLjA7Ii8+PHRleHQgZmlsbD0iIzAwMDAwMCIgZm9udC1mYW1pbHk9InNhbnMtc2VyaWYiIGZvbnQtc2l6ZT0iMTQiIGxlbmd0aEFkanVzdD0ic3BhY2luZyIgdGV4dExlbmd0aD0iMTUwIiB4PSI3NTkiIHk9IjE4Mi4xODc1Ij5nZXRVc2VybmFtZSgpOiBTdHJpbmc8L3RleHQ+PGVsbGlwc2UgY3g9Ijc1MCIgY3k9IjE5Mi45Mjk3IiBmaWxsPSIjODRCRTg0IiByeD0iMyIgcnk9IjMiIHN0eWxlPSJzdHJva2U6IzAzODA0ODtzdHJva2Utd2lkdGg6MS4wOyIvPjx0ZXh0IGZpbGw9IiMwMDAwMDAiIGZvbnQtZmFtaWx5PSJzYW5zLXNlcmlmIiBmb250LXNpemU9IjE0IiBsZW5ndGhBZGp1c3Q9InNwYWNpbmciIHRleHRMZW5ndGg9IjE1MCIgeD0iNzU5IiB5PSIxOTcuMTcxOSI+Z2V0UGFzc3dvcmQoKTogU3RyaW5nPC90ZXh0PjwvZz48IS0tY2xhc3MgUHJvZHVjdC0tPjxnIGlkPSJlbGVtX1Byb2R1Y3QiPjxyZWN0IGNvZGVMaW5lPSIxMCIgZmlsbD0iI0YxRjFGMSIgaGVpZ2h0PSIxMjIuOTIxOSIgaWQ9IlByb2R1Y3QiIHJ4PSIyLjUiIHJ5PSIyLjUiIHN0eWxlPSJzdHJva2U6IzE4MTgxODtzdHJva2Utd2lkdGg6MC41OyIgd2lkdGg9IjI4MSIgeD0iMzU3LjUiIHk9IjEwODgiLz48ZWxsaXBzZSBjeD0iNDY5LjI1IiBjeT0iMTEwNCIgZmlsbD0iI0FERDFCMiIgcng9IjExIiByeT0iMTEiIHN0eWxlPSJzdHJva2U6IzE4MTgxODtzdHJva2Utd2lkdGg6MS4wOyIvPjxwYXRoIGQ9Ik00NjYuODc1LDExMDguMjUgTDQ2Ni44NzUsMTExMCBMNDcxLjgxMjUsMTExMCBMNDcxLjgxMjUsMTEwOC4yNSBMNDY2Ljg3NSwxMTA4LjI1IFogTTQ2Ny41NjI1LDExMDguOTM3NSBRNDY3LjU2MjUsMTEwOC45Mzc1IDQ2Ny41NjI1LDEwOTkuNzUgTDQ2NS44MTI1LDEwOTkuNzUgUTQ2NS44MTI1LDEwOTkuNzUgNDY1LjgxMjUsMTEwOC45Mzc1IEw0NjcuNTYyNSwxMTA4LjkzNzUgWiBNNDcxLjEyNSwxMTA4LjkzNzUgTDQ3Mi44NzUsMTEwOC45Mzc1IFE0NzIuODc1LDExMDguOTM3NSA0NzIuODc1LDExMDYuMTI1IEw0NzEuMTI1LDExMDYuMTI1IFE0NzEuMTI1LDExMDYuMTI1IDQ3MS4xMjUsMTEwOC45Mzc1IFogTTQ3MS4xMjUsMTA5OS43NSBRNDcxLjEyNSwxMDk5Ljc1IDQ3MS4xMjUsMTEwMi41NjI1IEw0NzIuODc1LDExMDIuNTYyNSBRNDcyLjg3NSwxMTAyLjU2MjUgNDcyLjg3NSwxMDk5Ljc1IEw0NzEuMTI1LDEwOTkuNzUgWiBNNDY2Ljg3NSwxMTAwLjQzNzUgTDQ3MS44MTI1LDExMDAuNDM3NSBMNDcxLjgxMjUsMTA5OC42ODc1IEw0NjYuODc1LDEwOTguNjg3NSBMNDY2Ljg3NSwxMTAwLjQzNzUgWiAiIGZpbGw9IiMwMDAwMDAiLz48dGV4dCBmaWxsPSIjMDAwMDAwIiBmb250LWZhbWlseT0ic2Fucy1zZXJpZiIgZm9udC1zaXplPSIxNCIgbGVuZ3RoQWRqdXN0PSJzcGFjaW5nIiB0ZXh0TGVuZ3RoPSI0OSIgeD0iNDg5Ljc1IiB5PSIxMTA5Ljc0MjIiPlByb2R1Y3Q8L3RleHQ+PGxpbmUgc3R5bGU9InN0cm9rZTojMTgxODE4O3N0cm9rZS13aWR0aDowLjU7IiB4MT0iMzU4LjUiIHgyPSI2MzcuNSIgeTE9IjExMjAiIHkyPSIxMTIwIi8+PHJlY3QgZmlsbD0ibm9uZSIgaGVpZ2h0PSI2IiBzdHlsZT0ic3Ryb2tlOiNDODI5MzA7c3Ryb2tlLXdpZHRoOjEuMDsiIHdpZHRoPSI2IiB4PSIzNjUuNSIgeT0iMTEyOS45OTIyIi8+PHRleHQgZmlsbD0iIzAwMDAwMCIgZm9udC1mYW1pbHk9InNhbnMtc2VyaWYiIGZvbnQtc2l6ZT0iMTQiIGxlbmd0aEFkanVzdD0ic3BhY2luZyIgdGV4dExlbmd0aD0iODUiIHg9IjM3Ny41IiB5PSIxMTM3LjIzNDQiPm5hbWU6IFN0cmluZzwvdGV4dD48cmVjdCBmaWxsPSJub25lIiBoZWlnaHQ9IjYiIHN0eWxlPSJzdHJva2U6I0M4MjkzMDtzdHJva2Utd2lkdGg6MS4wOyIgd2lkdGg9IjYiIHg9IjM2NS41IiB5PSIxMTQ0Ljk3NjYiLz48dGV4dCBmaWxsPSIjMDAwMDAwIiBmb250LWZhbWlseT0ic2Fucy1zZXJpZiIgZm9udC1zaXplPSIxNCIgbGVuZ3RoQWRqdXN0PSJzcGFjaW5nIiB0ZXh0TGVuZ3RoPSI5MSIgeD0iMzc3LjUiIHk9IjExNTIuMjE4OCI+cHJpY2U6IGRvdWJsZTwvdGV4dD48bGluZSBzdHlsZT0ic3Ryb2tlOiMxODE4MTg7c3Ryb2tlLXdpZHRoOjAuNTsiIHgxPSIzNTguNSIgeDI9IjYzNy41IiB5MT0iMTE1Ny45Njg4IiB5Mj0iMTE1Ny45Njg4Ii8+PGVsbGlwc2UgY3g9IjM2OC41IiBjeT0iMTE3MC45NjA5IiBmaWxsPSIjODRCRTg0IiByeD0iMyIgcnk9IjMiIHN0eWxlPSJzdHJva2U6IzAzODA0ODtzdHJva2Utd2lkdGg6MS4wOyIvPjx0ZXh0IGZpbGw9IiMwMDAwMDAiIGZvbnQtZmFtaWx5PSJzYW5zLXNlcmlmIiBmb250LXNpemU9IjE0IiBsZW5ndGhBZGp1c3Q9InNwYWNpbmciIHRleHRMZW5ndGg9IjI1NSIgeD0iMzc3LjUiIHk9IjExNzUuMjAzMSI+UHJvZHVjdChuYW1lOiBTdHJpbmcsIHByaWNlOiBkb3VibGUpPC90ZXh0PjxlbGxpcHNlIGN4PSIzNjguNSIgY3k9IjExODUuOTQ1MyIgZmlsbD0iIzg0QkU4NCIgcng9IjMiIHJ5PSIzIiBzdHlsZT0ic3Ryb2tlOiMwMzgwNDg7c3Ryb2tlLXdpZHRoOjEuMDsiLz48dGV4dCBmaWxsPSIjMDAwMDAwIiBmb250LWZhbWlseT0ic2Fucy1zZXJpZiIgZm9udC1zaXplPSIxNCIgbGVuZ3RoQWRqdXN0PSJzcGFjaW5nIiB0ZXh0TGVuZ3RoPSIxMjIiIHg9IjM3Ny41IiB5PSIxMTkwLjE4NzUiPmdldE5hbWUoKTogU3RyaW5nPC90ZXh0PjxlbGxpcHNlIGN4PSIzNjguNSIgY3k9IjEyMDAuOTI5NyIgZmlsbD0iIzg0QkU4NCIgcng9IjMiIHJ5PSIzIiBzdHlsZT0ic3Ryb2tlOiMwMzgwNDg7c3Ryb2tlLXdpZHRoOjEuMDsiLz48dGV4dCBmaWxsPSIjMDAwMDAwIiBmb250LWZhbWlseT0ic2Fucy1zZXJpZiIgZm9udC1zaXplPSIxNCIgbGVuZ3RoQWRqdXN0PSJzcGFjaW5nIiB0ZXh0TGVuZ3RoPSIxMjgiIHg9IjM3Ny41IiB5PSIxMjA1LjE3MTkiPmdldFByaWNlKCk6IGRvdWJsZTwvdGV4dD48L2c+PCEtLWNsYXNzIEVsZWN0cm9uaWNzLS0+PGcgaWQ9ImVsZW1fRWxlY3Ryb25pY3MiPjxyZWN0IGNvZGVMaW5lPSIxOCIgZmlsbD0iI0YxRjFGMSIgaGVpZ2h0PSI0OCIgaWQ9IkVsZWN0cm9uaWNzIiByeD0iMi41IiByeT0iMi41IiBzdHlsZT0ic3Ryb2tlOiMxODE4MTg7c3Ryb2tlLXdpZHRoOjAuNTsiIHdpZHRoPSIxMDkiIHg9IjM3Ni41IiB5PSIxMjcxIi8+PGVsbGlwc2UgY3g9IjM5MS41IiBjeT0iMTI4NyIgZmlsbD0iI0FERDFCMiIgcng9IjExIiByeT0iMTEiIHN0eWxlPSJzdHJva2U6IzE4MTgxODtzdHJva2Utd2lkdGg6MS4wOyIvPjxwYXRoIGQ9Ik0zODkuMTI1LDEyOTEuMjUgTDM4OS4xMjUsMTI5MyBMMzk0LjA2MjUsMTI5MyBMMzk0LjA2MjUsMTI5MS4yNSBMMzg5LjEyNSwxMjkxLjI1IFogTTM4OS44MTI1LDEyOTEuOTM3NSBRMzg5LjgxMjUsMTI5MS45Mzc1IDM4OS44MTI1LDEyODIuNzUgTDM4OC4wNjI1LDEyODIuNzUgUTM4OC4wNjI1LDEyODIuNzUgMzg4LjA2MjUsMTI5MS45Mzc1IEwzODkuODEyNSwxMjkxLjkzNzUgWiBNMzkzLjM3NSwxMjkxLjkzNzUgTDM5NS4xMjUsMTI5MS45Mzc1IFEzOTUuMTI1LDEyOTEuOTM3NSAzOTUuMTI1LDEyODkuMTI1IEwzOTMuMzc1LDEyODkuMTI1IFEzOTMuMzc1LDEyODkuMTI1IDM5My4zNzUsMTI5MS45Mzc1IFogTTM5My4zNzUsMTI4Mi43NSBRMzkzLjM3NSwxMjgyLjc1IDM5My4zNzUsMTI4NS41NjI1IEwzOTUuMTI1LDEyODUuNTYyNSBRMzk1LjEyNSwxMjg1LjU2MjUgMzk1LjEyNSwxMjgyLjc1IEwzOTMuMzc1LDEyODIuNzUgWiBNMzg5LjEyNSwxMjgzLjQzNzUgTDM5NC4wNjI1LDEyODMuNDM3NSBMMzk0LjA2MjUsMTI4MS42ODc1IEwzODkuMTI1LDEyODEuNjg3NSBMMzg5LjEyNSwxMjgzLjQzNzUgWiAiIGZpbGw9IiMwMDAwMDAiLz48dGV4dCBmaWxsPSIjMDAwMDAwIiBmb250LWZhbWlseT0ic2Fucy1zZXJpZiIgZm9udC1zaXplPSIxNCIgbGVuZ3RoQWRqdXN0PSJzcGFjaW5nIiB0ZXh0TGVuZ3RoPSI3NyIgeD0iNDA1LjUiIHk9IjEyOTIuNzQyMiI+RWxlY3Ryb25pY3M8L3RleHQ+PGxpbmUgc3R5bGU9InN0cm9rZTojMTgxODE4O3N0cm9rZS13aWR0aDowLjU7IiB4MT0iMzc3LjUiIHgyPSI0ODQuNSIgeTE9IjEzMDMiIHkyPSIxMzAzIi8+PGxpbmUgc3R5bGU9InN0cm9rZTojMTgxODE4O3N0cm9rZS13aWR0aDowLjU7IiB4MT0iMzc3LjUiIHgyPSI0ODQuNSIgeTE9IjEzMTEiIHkyPSIxMzExIi8+PC9nPjwhLS1jbGFzcyBDbG90aGluZy0tPjxnIGlkPSJlbGVtX0Nsb3RoaW5nIj48cmVjdCBjb2RlTGluZT0iMjEiIGZpbGw9IiNGMUYxRjEiIGhlaWdodD0iNDgiIGlkPSJDbG90aGluZyIgcng9IjIuNSIgcnk9IjIuNSIgc3R5bGU9InN0cm9rZTojMTgxODE4O3N0cm9rZS13aWR0aDowLjU7IiB3aWR0aD0iODgiIHg9IjUyMSIgeT0iMTI3MSIvPjxlbGxpcHNlIGN4PSI1MzYiIGN5PSIxMjg3IiBmaWxsPSIjQUREMUIyIiByeD0iMTEiIHJ5PSIxMSIgc3R5bGU9InN0cm9rZTojMTgxODE4O3N0cm9rZS13aWR0aDoxLjA7Ii8+PHBhdGggZD0iTTUzMy42MjUsMTI5MS4yNSBMNTMzLjYyNSwxMjkzIEw1MzguNTYyNSwxMjkzIEw1MzguNTYyNSwxMjkxLjI1IEw1MzMuNjI1LDEyOTEuMjUgWiBNNTM0LjMxMjUsMTI5MS45Mzc1IFE1MzQuMzEyNSwxMjkxLjkzNzUgNTM0LjMxMjUsMTI4Mi43NSBMNTMyLjU2MjUsMTI4Mi43NSBRNTMyLjU2MjUsMTI4Mi43NSA1MzIuNTYyNSwxMjkxLjkzNzUgTDUzNC4zMTI1LDEyOTEuOTM3NSBaIE01MzcuODc1LDEyOTEuOTM3NSBMNTM5LjYyNSwxMjkxLjkzNzUgUTUzOS42MjUsMTI5MS45Mzc1IDUzOS42MjUsMTI4OS4xMjUgTDUzNy44NzUsMTI4OS4xMjUgUTUzNy44NzUsMTI4OS4xMjUgNTM3Ljg3NSwxMjkxLjkzNzUgWiBNNTM3Ljg3NSwxMjgyLjc1IFE1MzcuODc1LDEyODIuNzUgNTM3Ljg3NSwxMjg1LjU2MjUgTDUzOS42MjUsMTI4NS41NjI1IFE1MzkuNjI1LDEyODUuNTYyNSA1MzkuNjI1LDEyODIuNzUgTDUzNy44NzUsMTI4Mi43NSBaIE01MzMuNjI1LDEyODMuNDM3NSBMNTM4LjU2MjUsMTI4My40Mzc1IEw1MzguNTYyNSwxMjgxLjY4NzUgTDUzMy42MjUsMTI4MS42ODc1IEw1MzMuNjI1LDEyODMuNDM3NSBaICIgZmlsbD0iIzAwMDAwMCIvPjx0ZXh0IGZpbGw9IiMwMDAwMDAiIGZvbnQtZmFtaWx5PSJzYW5zLXNlcmlmIiBmb250LXNpemU9IjE0IiBsZW5ndGhBZGp1c3Q9InNwYWNpbmciIHRleHRMZW5ndGg9IjU2IiB4PSI1NTAiIHk9IjEyOTIuNzQyMiI+Q2xvdGhpbmc8L3RleHQ+PGxpbmUgc3R5bGU9InN0cm9rZTojMTgxODE4O3N0cm9rZS13aWR0aDowLjU7IiB4MT0iNTIyIiB4Mj0iNjA4IiB5MT0iMTMwMyIgeTI9IjEzMDMiLz48bGluZSBzdHlsZT0ic3Ryb2tlOiMxODE4MTg7c3Ryb2tlLXdpZHRoOjAuNTsiIHgxPSI1MjIiIHgyPSI2MDgiIHkxPSIxMzExIiB5Mj0iMTMxMSIvPjwvZz48IS0tY2xhc3MgUHJvZHVjdEZhY3RvcnktLT48ZyBpZD0iZWxlbV9Qcm9kdWN0RmFjdG9yeSI+PHJlY3QgY29kZUxpbmU9IjI0IiBmaWxsPSIjRjFGMUYxIiBoZWlnaHQ9IjYyLjk4NDQiIGlkPSJQcm9kdWN0RmFjdG9yeSIgcng9IjIuNSIgcnk9IjIuNSIgc3R5bGU9InN0cm9rZTojMTgxODE4O3N0cm9rZS13aWR0aDowLjU7IiB3aWR0aD0iNDg0IiB4PSI0NiIgeT0iOTM1Ii8+PGVsbGlwc2UgY3g9IjIzNC43NSIgY3k9Ijk1MSIgZmlsbD0iI0FERDFCMiIgcng9IjExIiByeT0iMTEiIHN0eWxlPSJzdHJva2U6IzE4MTgxODtzdHJva2Utd2lkdGg6MS4wOyIvPjxwYXRoIGQ9Ik0yMzIuMzc1LDk1NS4yNSBMMjMyLjM3NSw5NTcgTDIzNy4zMTI1LDk1NyBMMjM3LjMxMjUsOTU1LjI1IEwyMzIuMzc1LDk1NS4yNSBaIE0yMzMuMDYyNSw5NTUuOTM3NSBRMjMzLjA2MjUsOTU1LjkzNzUgMjMzLjA2MjUsOTQ2Ljc1IEwyMzEuMzEyNSw5NDYuNzUgUTIzMS4zMTI1LDk0Ni43NSAyMzEuMzEyNSw5NTUuOTM3NSBMMjMzLjA2MjUsOTU1LjkzNzUgWiBNMjM2LjYyNSw5NTUuOTM3NSBMMjM4LjM3NSw5NTUuOTM3NSBRMjM4LjM3NSw5NTUuOTM3NSAyMzguMzc1LDk1My4xMjUgTDIzNi42MjUsOTUzLjEyNSBRMjM2LjYyNSw5NTMuMTI1IDIzNi42MjUsOTU1LjkzNzUgWiBNMjM2LjYyNSw5NDYuNzUgUTIzNi42MjUsOTQ2Ljc1IDIzNi42MjUsOTQ5LjU2MjUgTDIzOC4zNzUsOTQ5LjU2MjUgUTIzOC4zNzUsOTQ5LjU2MjUgMjM4LjM3NSw5NDYuNzUgTDIzNi42MjUsOTQ2Ljc1IFogTTIzMi4zNzUsOTQ3LjQzNzUgTDIzNy4zMTI1LDk0Ny40Mzc1IEwyMzcuMzEyNSw5NDUuNjg3NSBMMjMyLjM3NSw5NDUuNjg3NSBMMjMyLjM3NSw5NDcuNDM3NSBaICIgZmlsbD0iIzAwMDAwMCIvPjx0ZXh0IGZpbGw9IiMwMDAwMDAiIGZvbnQtZmFtaWx5PSJzYW5zLXNlcmlmIiBmb250LXNpemU9IjE0IiBsZW5ndGhBZGp1c3Q9InNwYWNpbmciIHRleHRMZW5ndGg9Ijk4IiB4PSIyNTUuMjUiIHk9Ijk1Ni43NDIyIj5Qcm9kdWN0RmFjdG9yeTwvdGV4dD48bGluZSBzdHlsZT0ic3Ryb2tlOiMxODE4MTg7c3Ryb2tlLXdpZHRoOjAuNTsiIHgxPSI0NyIgeDI9IjUyOSIgeTE9Ijk2NyIgeTI9Ijk2NyIvPjxsaW5lIHN0eWxlPSJzdHJva2U6IzE4MTgxODtzdHJva2Utd2lkdGg6MC41OyIgeDE9IjQ3IiB4Mj0iNTI5IiB5MT0iOTc1IiB5Mj0iOTc1Ii8+PGVsbGlwc2UgY3g9IjU3IiBjeT0iOTg3Ljk5MjIiIGZpbGw9IiM4NEJFODQiIHJ4PSIzIiByeT0iMyIgc3R5bGU9InN0cm9rZTojMDM4MDQ4O3N0cm9rZS13aWR0aDoxLjA7Ii8+PHRleHQgZmlsbD0iIzAwMDAwMCIgZm9udC1mYW1pbHk9InNhbnMtc2VyaWYiIGZvbnQtc2l6ZT0iMTQiIGxlbmd0aEFkanVzdD0ic3BhY2luZyIgdGV4dExlbmd0aD0iNDU4IiB4PSI2NiIgeT0iOTkyLjIzNDQiPmNyZWF0ZVByb2R1Y3QodHlwZTogU3RyaW5nLCBuYW1lOiBTdHJpbmcsIHByaWNlOiBkb3VibGUpOiBQcm9kdWN0PC90ZXh0PjwvZz48IS0tY2xhc3MgU2hvcHBpbmdDYXJ0LS0+PGcgaWQ9ImVsZW1fU2hvcHBpbmdDYXJ0Ij48cmVjdCBjb2RlTGluZT0iMjgiIGZpbGw9IiNGMUYxRjEiIGhlaWdodD0iMTIyLjkyMTkiIGlkPSJTaG9wcGluZ0NhcnQiIHJ4PSIyLjUiIHJ5PSIyLjUiIHN0eWxlPSJzdHJva2U6IzE4MTgxODtzdHJva2Utd2lkdGg6MC41OyIgd2lkdGg9IjI4OCIgeD0iNTY1IiB5PSI5MDUiLz48ZWxsaXBzZSBjeD0iNjYyLjc1IiBjeT0iOTIxIiBmaWxsPSIjQUREMUIyIiByeD0iMTEiIHJ5PSIxMSIgc3R5bGU9InN0cm9rZTojMTgxODE4O3N0cm9rZS13aWR0aDoxLjA7Ii8+PHBhdGggZD0iTTY2MC4zNzUsOTI1LjI1IEw2NjAuMzc1LDkyNyBMNjY1LjMxMjUsOTI3IEw2NjUuMzEyNSw5MjUuMjUgTDY2MC4zNzUsOTI1LjI1IFogTTY2MS4wNjI1LDkyNS45Mzc1IFE2NjEuMDYyNSw5MjUuOTM3NSA2NjEuMDYyNSw5MTYuNzUgTDY1OS4zMTI1LDkxNi43NSBRNjU5LjMxMjUsOTE2Ljc1IDY1OS4zMTI1LDkyNS45Mzc1IEw2NjEuMDYyNSw5MjUuOTM3NSBaIE02NjQuNjI1LDkyNS45Mzc1IEw2NjYuMzc1LDkyNS45Mzc1IFE2NjYuMzc1LDkyNS45Mzc1IDY2Ni4zNzUsOTIzLjEyNSBMNjY0LjYyNSw5MjMuMTI1IFE2NjQuNjI1LDkyMy4xMjUgNjY0LjYyNSw5MjUuOTM3NSBaIE02NjQuNjI1LDkxNi43NSBRNjY0LjYyNSw5MTYuNzUgNjY0LjYyNSw5MTkuNTYyNSBMNjY2LjM3NSw5MTkuNTYyNSBRNjY2LjM3NSw5MTkuNTYyNSA2NjYuMzc1LDkxNi43NSBMNjY0LjYyNSw5MTYuNzUgWiBNNjYwLjM3NSw5MTcuNDM3NSBMNjY1LjMxMjUsOTE3LjQzNzUgTDY2NS4zMTI1LDkxNS42ODc1IEw2NjAuMzc1LDkxNS42ODc1IEw2NjAuMzc1LDkxNy40Mzc1IFogIiBmaWxsPSIjMDAwMDAwIi8+PHRleHQgZmlsbD0iIzAwMDAwMCIgZm9udC1mYW1pbHk9InNhbnMtc2VyaWYiIGZvbnQtc2l6ZT0iMTQiIGxlbmd0aEFkanVzdD0ic3BhY2luZyIgdGV4dExlbmd0aD0iODQiIHg9IjY4My4yNSIgeT0iOTI2Ljc0MjIiPlNob3BwaW5nQ2FydDwvdGV4dD48bGluZSBzdHlsZT0ic3Ryb2tlOiMxODE4MTg7c3Ryb2tlLXdpZHRoOjAuNTsiIHgxPSI1NjYiIHgyPSI4NTIiIHkxPSI5MzciIHkyPSI5MzciLz48cmVjdCBmaWxsPSJub25lIiBoZWlnaHQ9IjYiIHN0eWxlPSJzdHJva2U6I0M4MjkzMDtzdHJva2Utd2lkdGg6MS4wOyIgd2lkdGg9IjYiIHg9IjU3MyIgeT0iOTQ2Ljk5MjIiLz48dGV4dCBmaWxsPSIjMDAwMDAwIiBmb250LWZhbWlseT0ic2Fucy1zZXJpZiIgZm9udC1zaXplPSIxNCIgbGVuZ3RoQWRqdXN0PSJzcGFjaW5nIiB0ZXh0TGVuZ3RoPSIxNjEiIHg9IjU4NSIgeT0iOTU0LjIzNDQiPnByb2R1Y3RzOiBMaXN0Jmx0O1Byb2R1Y3QmZ3Q7PC90ZXh0PjxsaW5lIHN0eWxlPSJzdHJva2U6IzE4MTgxODtzdHJva2Utd2lkdGg6MC41OyIgeDE9IjU2NiIgeDI9Ijg1MiIgeTE9Ijk1OS45ODQ0IiB5Mj0iOTU5Ljk4NDQiLz48ZWxsaXBzZSBjeD0iNTc2IiBjeT0iOTcyLjk3NjYiIGZpbGw9IiM4NEJFODQiIHJ4PSIzIiByeT0iMyIgc3R5bGU9InN0cm9rZTojMDM4MDQ4O3N0cm9rZS13aWR0aDoxLjA7Ii8+PHRleHQgZmlsbD0iIzAwMDAwMCIgZm9udC1mYW1pbHk9InNhbnMtc2VyaWYiIGZvbnQtc2l6ZT0iMTQiIGxlbmd0aEFkanVzdD0ic3BhY2luZyIgdGV4dExlbmd0aD0iMTkxIiB4PSI1ODUiIHk9Ijk3Ny4yMTg4Ij5nZXRJbnN0YW5jZSgpOiBTaG9wcGluZ0NhcnQ8L3RleHQ+PGVsbGlwc2UgY3g9IjU3NiIgY3k9Ijk4Ny45NjA5IiBmaWxsPSIjODRCRTg0IiByeD0iMyIgcnk9IjMiIHN0eWxlPSJzdHJva2U6IzAzODA0ODtzdHJva2Utd2lkdGg6MS4wOyIvPjx0ZXh0IGZpbGw9IiMwMDAwMDAiIGZvbnQtZmFtaWx5PSJzYW5zLXNlcmlmIiBmb250LXNpemU9IjE0IiBsZW5ndGhBZGp1c3Q9InNwYWNpbmciIHRleHRMZW5ndGg9IjI0MCIgeD0iNTg1IiB5PSI5OTIuMjAzMSI+YWRkUHJvZHVjdChwcm9kdWN0OiBQcm9kdWN0KTogdm9pZDwvdGV4dD48ZWxsaXBzZSBjeD0iNTc2IiBjeT0iMTAwMi45NDUzIiBmaWxsPSIjODRCRTg0IiByeD0iMyIgcnk9IjMiIHN0eWxlPSJzdHJva2U6IzAzODA0ODtzdHJva2Utd2lkdGg6MS4wOyIvPjx0ZXh0IGZpbGw9IiMwMDAwMDAiIGZvbnQtZmFtaWx5PSJzYW5zLXNlcmlmIiBmb250LXNpemU9IjE0IiBsZW5ndGhBZGp1c3Q9InNwYWNpbmciIHRleHRMZW5ndGg9IjI2MiIgeD0iNTg1IiB5PSIxMDA3LjE4NzUiPnJlbW92ZVByb2R1Y3QocHJvZHVjdDogUHJvZHVjdCk6IHZvaWQ8L3RleHQ+PGVsbGlwc2UgY3g9IjU3NiIgY3k9IjEwMTcuOTI5NyIgZmlsbD0iIzg0QkU4NCIgcng9IjMiIHJ5PSIzIiBzdHlsZT0ic3Ryb2tlOiMwMzgwNDg7c3Ryb2tlLXdpZHRoOjEuMDsiLz48dGV4dCBmaWxsPSIjMDAwMDAwIiBmb250LWZhbWlseT0ic2Fucy1zZXJpZiIgZm9udC1zaXplPSIxNCIgbGVuZ3RoQWRqdXN0PSJzcGFjaW5nIiB0ZXh0TGVuZ3RoPSIxOTgiIHg9IjU4NSIgeT0iMTAyMi4xNzE5Ij5nZXRQcm9kdWN0cygpOiBMaXN0Jmx0O1Byb2R1Y3QmZ3Q7PC90ZXh0PjwvZz48IS0tY2xhc3MgQ2FydEJ1aWxkZXItLT48ZyBpZD0iZWxlbV9DYXJ0QnVpbGRlciI+PHJlY3QgY29kZUxpbmU9IjM2IiBmaWxsPSIjRjFGMUYxIiBoZWlnaHQ9IjEwNy45Mzc1IiBpZD0iQ2FydEJ1aWxkZXIiIHJ4PSIyLjUiIHJ5PSIyLjUiIHN0eWxlPSJzdHJva2U6IzE4MTgxODtzdHJva2Utd2lkdGg6MC41OyIgd2lkdGg9IjMzNyIgeD0iODM3LjUiIHk9IjczNyIvPjxlbGxpcHNlIGN4PSI5NjMuMjUiIGN5PSI3NTMiIGZpbGw9IiNBREQxQjIiIHJ4PSIxMSIgcnk9IjExIiBzdHlsZT0ic3Ryb2tlOiMxODE4MTg7c3Ryb2tlLXdpZHRoOjEuMDsiLz48cGF0aCBkPSJNOTYwLjg3NSw3NTcuMjUgTDk2MC44NzUsNzU5IEw5NjUuODEyNSw3NTkgTDk2NS44MTI1LDc1Ny4yNSBMOTYwLjg3NSw3NTcuMjUgWiBNOTYxLjU2MjUsNzU3LjkzNzUgUTk2MS41NjI1LDc1Ny45Mzc1IDk2MS41NjI1LDc0OC43NSBMOTU5LjgxMjUsNzQ4Ljc1IFE5NTkuODEyNSw3NDguNzUgOTU5LjgxMjUsNzU3LjkzNzUgTDk2MS41NjI1LDc1Ny45Mzc1IFogTTk2NS4xMjUsNzU3LjkzNzUgTDk2Ni44NzUsNzU3LjkzNzUgUTk2Ni44NzUsNzU3LjkzNzUgOTY2Ljg3NSw3NTUuMTI1IEw5NjUuMTI1LDc1NS4xMjUgUTk2NS4xMjUsNzU1LjEyNSA5NjUuMTI1LDc1Ny45Mzc1IFogTTk2NS4xMjUsNzQ4Ljc1IFE5NjUuMTI1LDc0OC43NSA5NjUuMTI1LDc1MS41NjI1IEw5NjYuODc1LDc1MS41NjI1IFE5NjYuODc1LDc1MS41NjI1IDk2Ni44NzUsNzQ4Ljc1IEw5NjUuMTI1LDc0OC43NSBaIE05NjAuODc1LDc0OS40Mzc1IEw5NjUuODEyNSw3NDkuNDM3NSBMOTY1LjgxMjUsNzQ3LjY4NzUgTDk2MC44NzUsNzQ3LjY4NzUgTDk2MC44NzUsNzQ5LjQzNzUgWiAiIGZpbGw9IiMwMDAwMDAiLz48dGV4dCBmaWxsPSIjMDAwMDAwIiBmb250LWZhbWlseT0ic2Fucy1zZXJpZiIgZm9udC1zaXplPSIxNCIgbGVuZ3RoQWRqdXN0PSJzcGFjaW5nIiB0ZXh0TGVuZ3RoPSI3NyIgeD0iOTgzLjc1IiB5PSI3NTguNzQyMiI+Q2FydEJ1aWxkZXI8L3RleHQ+PGxpbmUgc3R5bGU9InN0cm9rZTojMTgxODE4O3N0cm9rZS13aWR0aDowLjU7IiB4MT0iODM4LjUiIHgyPSIxMTczLjUiIHkxPSI3NjkiIHkyPSI3NjkiLz48cmVjdCBmaWxsPSJub25lIiBoZWlnaHQ9IjYiIHN0eWxlPSJzdHJva2U6I0M4MjkzMDtzdHJva2Utd2lkdGg6MS4wOyIgd2lkdGg9IjYiIHg9Ijg0NS41IiB5PSI3NzguOTkyMiIvPjx0ZXh0IGZpbGw9IiMwMDAwMDAiIGZvbnQtZmFtaWx5PSJzYW5zLXNlcmlmIiBmb250LXNpemU9IjE0IiBsZW5ndGhBZGp1c3Q9InNwYWNpbmciIHRleHRMZW5ndGg9IjEyNiIgeD0iODU3LjUiIHk9Ijc4Ni4yMzQ0Ij5jYXJ0OiBTaG9wcGluZ0NhcnQ8L3RleHQ+PGxpbmUgc3R5bGU9InN0cm9rZTojMTgxODE4O3N0cm9rZS13aWR0aDowLjU7IiB4MT0iODM4LjUiIHgyPSIxMTczLjUiIHkxPSI3OTEuOTg0NCIgeTI9Ijc5MS45ODQ0Ii8+PGVsbGlwc2UgY3g9Ijg0OC41IiBjeT0iODA0Ljk3NjYiIGZpbGw9IiM4NEJFODQiIHJ4PSIzIiByeT0iMyIgc3R5bGU9InN0cm9rZTojMDM4MDQ4O3N0cm9rZS13aWR0aDoxLjA7Ii8+PHRleHQgZmlsbD0iIzAwMDAwMCIgZm9udC1mYW1pbHk9InNhbnMtc2VyaWYiIGZvbnQtc2l6ZT0iMTQiIGxlbmd0aEFkanVzdD0ic3BhY2luZyIgdGV4dExlbmd0aD0iMjg5IiB4PSI4NTcuNSIgeT0iODA5LjIxODgiPmFkZFByb2R1Y3QocHJvZHVjdDogUHJvZHVjdCk6IENhcnRCdWlsZGVyPC90ZXh0PjxlbGxpcHNlIGN4PSI4NDguNSIgY3k9IjgxOS45NjA5IiBmaWxsPSIjODRCRTg0IiByeD0iMyIgcnk9IjMiIHN0eWxlPSJzdHJva2U6IzAzODA0ODtzdHJva2Utd2lkdGg6MS4wOyIvPjx0ZXh0IGZpbGw9IiMwMDAwMDAiIGZvbnQtZmFtaWx5PSJzYW5zLXNlcmlmIiBmb250LXNpemU9IjE0IiBsZW5ndGhBZGp1c3Q9InNwYWNpbmciIHRleHRMZW5ndGg9IjMxMSIgeD0iODU3LjUiIHk9IjgyNC4yMDMxIj5yZW1vdmVQcm9kdWN0KHByb2R1Y3Q6IFByb2R1Y3QpOiBDYXJ0QnVpbGRlcjwvdGV4dD48ZWxsaXBzZSBjeD0iODQ4LjUiIGN5PSI4MzQuOTQ1MyIgZmlsbD0iIzg0QkU4NCIgcng9IjMiIHJ5PSIzIiBzdHlsZT0ic3Ryb2tlOiMwMzgwNDg7c3Ryb2tlLXdpZHRoOjEuMDsiLz48dGV4dCBmaWxsPSIjMDAwMDAwIiBmb250LWZhbWlseT0ic2Fucy1zZXJpZiIgZm9udC1zaXplPSIxNCIgbGVuZ3RoQWRqdXN0PSJzcGFjaW5nIiB0ZXh0TGVuZ3RoPSIxNDkiIHg9Ijg1Ny41IiB5PSI4MzkuMTg3NSI+YnVpbGQoKTogU2hvcHBpbmdDYXJ0PC90ZXh0PjwvZz48IS0tY2xhc3MgT3JkZXItLT48ZyBpZD0iZWxlbV9PcmRlciI+PHJlY3QgY29kZUxpbmU9IjQzIiBmaWxsPSIjRjFGMUYxIiBoZWlnaHQ9IjkyLjk1MzEiIGlkPSJPcmRlciIgcng9IjIuNSIgcnk9IjIuNSIgc3R5bGU9InN0cm9rZTojMTgxODE4O3N0cm9rZS13aWR0aDowLjU7IiB3aWR0aD0iMzY1IiB4PSIxMTkuNSIgeT0iNzQ0LjUiLz48ZWxsaXBzZSBjeD0iMjgwLjI1IiBjeT0iNzYwLjUiIGZpbGw9IiNBREQxQjIiIHJ4PSIxMSIgcnk9IjExIiBzdHlsZT0ic3Ryb2tlOiMxODE4MTg7c3Ryb2tlLXdpZHRoOjEuMDsiLz48cGF0aCBkPSJNMjc3Ljg3NSw3NjQuNzUgTDI3Ny44NzUsNzY2LjUgTDI4Mi44MTI1LDc2Ni41IEwyODIuODEyNSw3NjQuNzUgTDI3Ny44NzUsNzY0Ljc1IFogTTI3OC41NjI1LDc2NS40Mzc1IFEyNzguNTYyNSw3NjUuNDM3NSAyNzguNTYyNSw3NTYuMjUgTDI3Ni44MTI1LDc1Ni4yNSBRMjc2LjgxMjUsNzU2LjI1IDI3Ni44MTI1LDc2NS40Mzc1IEwyNzguNTYyNSw3NjUuNDM3NSBaIE0yODIuMTI1LDc2NS40Mzc1IEwyODMuODc1LDc2NS40Mzc1IFEyODMuODc1LDc2NS40Mzc1IDI4My44NzUsNzYyLjYyNSBMMjgyLjEyNSw3NjIuNjI1IFEyODIuMTI1LDc2Mi42MjUgMjgyLjEyNSw3NjUuNDM3NSBaIE0yODIuMTI1LDc1Ni4yNSBRMjgyLjEyNSw3NTYuMjUgMjgyLjEyNSw3NTkuMDYyNSBMMjgzLjg3NSw3NTkuMDYyNSBRMjgzLjg3NSw3NTkuMDYyNSAyODMuODc1LDc1Ni4yNSBMMjgyLjEyNSw3NTYuMjUgWiBNMjc3Ljg3NSw3NTYuOTM3NSBMMjgyLjgxMjUsNzU2LjkzNzUgTDI4Mi44MTI1LDc1NS4xODc1IEwyNzcuODc1LDc1NS4xODc1IEwyNzcuODc1LDc1Ni45Mzc1IFogIiBmaWxsPSIjMDAwMDAwIi8+PHRleHQgZmlsbD0iIzAwMDAwMCIgZm9udC1mYW1pbHk9InNhbnMtc2VyaWYiIGZvbnQtc2l6ZT0iMTQiIGxlbmd0aEFkanVzdD0ic3BhY2luZyIgdGV4dExlbmd0aD0iMzUiIHg9IjMwMC43NSIgeT0iNzY2LjI0MjIiPk9yZGVyPC90ZXh0PjxsaW5lIHN0eWxlPSJzdHJva2U6IzE4MTgxODtzdHJva2Utd2lkdGg6MC41OyIgeDE9IjEyMC41IiB4Mj0iNDgzLjUiIHkxPSI3NzYuNSIgeTI9Ijc3Ni41Ii8+PHJlY3QgZmlsbD0ibm9uZSIgaGVpZ2h0PSI2IiBzdHlsZT0ic3Ryb2tlOiNDODI5MzA7c3Ryb2tlLXdpZHRoOjEuMDsiIHdpZHRoPSI2IiB4PSIxMjcuNSIgeT0iNzg2LjQ5MjIiLz48dGV4dCBmaWxsPSIjMDAwMDAwIiBmb250LWZhbWlseT0ic2Fucy1zZXJpZiIgZm9udC1zaXplPSIxNCIgbGVuZ3RoQWRqdXN0PSJzcGFjaW5nIiB0ZXh0TGVuZ3RoPSIxNjEiIHg9IjEzOS41IiB5PSI3OTMuNzM0NCI+cHJvZHVjdHM6IExpc3QmbHQ7UHJvZHVjdCZndDs8L3RleHQ+PHJlY3QgZmlsbD0ibm9uZSIgaGVpZ2h0PSI2IiBzdHlsZT0ic3Ryb2tlOiNDODI5MzA7c3Ryb2tlLXdpZHRoOjEuMDsiIHdpZHRoPSI2IiB4PSIxMjcuNSIgeT0iODAxLjQ3NjYiLz48dGV4dCBmaWxsPSIjMDAwMDAwIiBmb250LWZhbWlseT0ic2Fucy1zZXJpZiIgZm9udC1zaXplPSIxNCIgbGVuZ3RoQWRqdXN0PSJzcGFjaW5nIiB0ZXh0TGVuZ3RoPSIxMTMiIHg9IjEzOS41IiB5PSI4MDguNzE4OCI+Y3VzdG9tZXI6IFN0cmluZzwvdGV4dD48bGluZSBzdHlsZT0ic3Ryb2tlOiMxODE4MTg7c3Ryb2tlLXdpZHRoOjAuNTsiIHgxPSIxMjAuNSIgeDI9IjQ4My41IiB5MT0iODE0LjQ2ODgiIHkyPSI4MTQuNDY4OCIvPjxlbGxpcHNlIGN4PSIxMzAuNSIgY3k9IjgyNy40NjA5IiBmaWxsPSIjODRCRTg0IiByeD0iMyIgcnk9IjMiIHN0eWxlPSJzdHJva2U6IzAzODA0ODtzdHJva2Utd2lkdGg6MS4wOyIvPjx0ZXh0IGZpbGw9IiMwMDAwMDAiIGZvbnQtZmFtaWx5PSJzYW5zLXNlcmlmIiBmb250LXNpemU9IjE0IiBsZW5ndGhBZGp1c3Q9InNwYWNpbmciIHRleHRMZW5ndGg9IjMzOSIgeD0iMTM5LjUiIHk9IjgzMS43MDMxIj5PcmRlcihwcm9kdWN0czogTGlzdCZsdDtQcm9kdWN0Jmd0OywgY3VzdG9tZXI6IFN0cmluZyk8L3RleHQ+PC9nPjwhLS1jbGFzcyBPcmRlclNlcnZpY2UtLT48ZyBpZD0iZWxlbV9PcmRlclNlcnZpY2UiPjxyZWN0IGNvZGVMaW5lPSI0OSIgZmlsbD0iI0YxRjFGMSIgaGVpZ2h0PSI2Mi45ODQ0IiBpZD0iT3JkZXJTZXJ2aWNlIiByeD0iMi41IiByeT0iMi41IiBzdHlsZT0ic3Ryb2tlOiMxODE4MTg7c3Ryb2tlLXdpZHRoOjAuNTsiIHdpZHRoPSIyNjciIHg9IjE0NC41IiB5PSI2MDYuNSIvPjxlbGxpcHNlIGN4PSIyMzEuNzUiIGN5PSI2MjIuNSIgZmlsbD0iI0FERDFCMiIgcng9IjExIiByeT0iMTEiIHN0eWxlPSJzdHJva2U6IzE4MTgxODtzdHJva2Utd2lkdGg6MS4wOyIvPjxwYXRoIGQ9Ik0yMjkuMzc1LDYyNi43NSBMMjI5LjM3NSw2MjguNSBMMjM0LjMxMjUsNjI4LjUgTDIzNC4zMTI1LDYyNi43NSBMMjI5LjM3NSw2MjYuNzUgWiBNMjMwLjA2MjUsNjI3LjQzNzUgUTIzMC4wNjI1LDYyNy40Mzc1IDIzMC4wNjI1LDYxOC4yNSBMMjI4LjMxMjUsNjE4LjI1IFEyMjguMzEyNSw2MTguMjUgMjI4LjMxMjUsNjI3LjQzNzUgTDIzMC4wNjI1LDYyNy40Mzc1IFogTTIzMy42MjUsNjI3LjQzNzUgTDIzNS4zNzUsNjI3LjQzNzUgUTIzNS4zNzUsNjI3LjQzNzUgMjM1LjM3NSw2MjQuNjI1IEwyMzMuNjI1LDYyNC42MjUgUTIzMy42MjUsNjI0LjYyNSAyMzMuNjI1LDYyNy40Mzc1IFogTTIzMy42MjUsNjE4LjI1IFEyMzMuNjI1LDYxOC4yNSAyMzMuNjI1LDYyMS4wNjI1IEwyMzUuMzc1LDYyMS4wNjI1IFEyMzUuMzc1LDYyMS4wNjI1IDIzNS4zNzUsNjE4LjI1IEwyMzMuNjI1LDYxOC4yNSBaIE0yMjkuMzc1LDYxOC45Mzc1IEwyMzQuMzEyNSw2MTguOTM3NSBMMjM0LjMxMjUsNjE3LjE4NzUgTDIyOS4zNzUsNjE3LjE4NzUgTDIyOS4zNzUsNjE4LjkzNzUgWiAiIGZpbGw9IiMwMDAwMDAiLz48dGV4dCBmaWxsPSIjMDAwMDAwIiBmb250LWZhbWlseT0ic2Fucy1zZXJpZiIgZm9udC1zaXplPSIxNCIgbGVuZ3RoQWRqdXN0PSJzcGFjaW5nIiB0ZXh0TGVuZ3RoPSI4NCIgeD0iMjUyLjI1IiB5PSI2MjguMjQyMiI+T3JkZXJTZXJ2aWNlPC90ZXh0PjxsaW5lIHN0eWxlPSJzdHJva2U6IzE4MTgxODtzdHJva2Utd2lkdGg6MC41OyIgeDE9IjE0NS41IiB4Mj0iNDEwLjUiIHkxPSI2MzguNSIgeTI9IjYzOC41Ii8+PGxpbmUgc3R5bGU9InN0cm9rZTojMTgxODE4O3N0cm9rZS13aWR0aDowLjU7IiB4MT0iMTQ1LjUiIHgyPSI0MTAuNSIgeTE9IjY0Ni41IiB5Mj0iNjQ2LjUiLz48ZWxsaXBzZSBjeD0iMTU1LjUiIGN5PSI2NTkuNDkyMiIgZmlsbD0iIzg0QkU4NCIgcng9IjMiIHJ5PSIzIiBzdHlsZT0ic3Ryb2tlOiMwMzgwNDg7c3Ryb2tlLXdpZHRoOjEuMDsiLz48dGV4dCBmaWxsPSIjMDAwMDAwIiBmb250LWZhbWlseT0ic2Fucy1zZXJpZiIgZm9udC1zaXplPSIxNCIgbGVuZ3RoQWRqdXN0PSJzcGFjaW5nIiB0ZXh0TGVuZ3RoPSIyNDEiIHg9IjE2NC41IiB5PSI2NjMuNzM0NCI+cGxhY2VPcmRlcihjdXN0b21lcjogU3RyaW5nKTogdm9pZDwvdGV4dD48L2c+PCEtLWNsYXNzIFBheW1lbnRTZXJ2aWNlLS0+PGcgaWQ9ImVsZW1fUGF5bWVudFNlcnZpY2UiPjxyZWN0IGNvZGVMaW5lPSI1MyIgZmlsbD0iI0YxRjFGMSIgaGVpZ2h0PSI2Mi45ODQ0IiBpZD0iUGF5bWVudFNlcnZpY2UiIHJ4PSIyLjUiIHJ5PSIyLjUiIHN0eWxlPSJzdHJva2U6IzE4MTgxODtzdHJva2Utd2lkdGg6MC41OyIgd2lkdGg9IjI4MiIgeD0iNTIwIiB5PSI3NTkuNSIvPjxlbGxpcHNlIGN4PSI2MDcuMjUiIGN5PSI3NzUuNSIgZmlsbD0iI0FERDFCMiIgcng9IjExIiByeT0iMTEiIHN0eWxlPSJzdHJva2U6IzE4MTgxODtzdHJva2Utd2lkdGg6MS4wOyIvPjxwYXRoIGQ9Ik02MDQuODc1LDc3OS43NSBMNjA0Ljg3NSw3ODEuNSBMNjA5LjgxMjUsNzgxLjUgTDYwOS44MTI1LDc3OS43NSBMNjA0Ljg3NSw3NzkuNzUgWiBNNjA1LjU2MjUsNzgwLjQzNzUgUTYwNS41NjI1LDc4MC40Mzc1IDYwNS41NjI1LDc3MS4yNSBMNjAzLjgxMjUsNzcxLjI1IFE2MDMuODEyNSw3NzEuMjUgNjAzLjgxMjUsNzgwLjQzNzUgTDYwNS41NjI1LDc4MC40Mzc1IFogTTYwOS4xMjUsNzgwLjQzNzUgTDYxMC44NzUsNzgwLjQzNzUgUTYxMC44NzUsNzgwLjQzNzUgNjEwLjg3NSw3NzcuNjI1IEw2MDkuMTI1LDc3Ny42MjUgUTYwOS4xMjUsNzc3LjYyNSA2MDkuMTI1LDc4MC40Mzc1IFogTTYwOS4xMjUsNzcxLjI1IFE2MDkuMTI1LDc3MS4yNSA2MDkuMTI1LDc3NC4wNjI1IEw2MTAuODc1LDc3NC4wNjI1IFE2MTAuODc1LDc3NC4wNjI1IDYxMC44NzUsNzcxLjI1IEw2MDkuMTI1LDc3MS4yNSBaIE02MDQuODc1LDc3MS45Mzc1IEw2MDkuODEyNSw3NzEuOTM3NSBMNjA5LjgxMjUsNzcwLjE4NzUgTDYwNC44NzUsNzcwLjE4NzUgTDYwNC44NzUsNzcxLjkzNzUgWiAiIGZpbGw9IiMwMDAwMDAiLz48dGV4dCBmaWxsPSIjMDAwMDAwIiBmb250LWZhbWlseT0ic2Fucy1zZXJpZiIgZm9udC1zaXplPSIxNCIgbGVuZ3RoQWRqdXN0PSJzcGFjaW5nIiB0ZXh0TGVuZ3RoPSI5OSIgeD0iNjI3Ljc1IiB5PSI3ODEuMjQyMiI+UGF5bWVudFNlcnZpY2U8L3RleHQ+PGxpbmUgc3R5bGU9InN0cm9rZTojMTgxODE4O3N0cm9rZS13aWR0aDowLjU7IiB4MT0iNTIxIiB4Mj0iODAxIiB5MT0iNzkxLjUiIHkyPSI3OTEuNSIvPjxsaW5lIHN0eWxlPSJzdHJva2U6IzE4MTgxODtzdHJva2Utd2lkdGg6MC41OyIgeDE9IjUyMSIgeDI9IjgwMSIgeTE9Ijc5OS41IiB5Mj0iNzk5LjUiLz48ZWxsaXBzZSBjeD0iNTMxIiBjeT0iODEyLjQ5MjIiIGZpbGw9IiM4NEJFODQiIHJ4PSIzIiByeT0iMyIgc3R5bGU9InN0cm9rZTojMDM4MDQ4O3N0cm9rZS13aWR0aDoxLjA7Ii8+PHRleHQgZmlsbD0iIzAwMDAwMCIgZm9udC1mYW1pbHk9InNhbnMtc2VyaWYiIGZvbnQtc2l6ZT0iMTQiIGxlbmd0aEFkanVzdD0ic3BhY2luZyIgdGV4dExlbmd0aD0iMjU2IiB4PSI1NDAiIHk9IjgxNi43MzQ0Ij5wcm9jZXNzUGF5bWVudChhbW91bnQ6IGRvdWJsZSk6IHZvaWQ8L3RleHQ+PC9nPjwhLS1jbGFzcyBMb2dnZXItLT48ZyBpZD0iZWxlbV9Mb2dnZXIiPjxyZWN0IGNvZGVMaW5lPSI1NyIgZmlsbD0iI0YxRjFGMSIgaGVpZ2h0PSI2Mi45ODQ0IiBpZD0iTG9nZ2VyIiByeD0iMi41IiByeT0iMi41IiBzdHlsZT0ic3Ryb2tlOiMxODE4MTg7c3Ryb2tlLXdpZHRoOjAuNTsiIHdpZHRoPSIyMTEiIHg9IjQ4NC41IiB5PSI2MDYuNSIvPjxlbGxpcHNlIGN4PSI1NjQuNzUiIGN5PSI2MjIuNSIgZmlsbD0iI0FERDFCMiIgcng9IjExIiByeT0iMTEiIHN0eWxlPSJzdHJva2U6IzE4MTgxODtzdHJva2Utd2lkdGg6MS4wOyIvPjxwYXRoIGQ9Ik01NjIuMzc1LDYyNi43NSBMNTYyLjM3NSw2MjguNSBMNTY3LjMxMjUsNjI4LjUgTDU2Ny4zMTI1LDYyNi43NSBMNTYyLjM3NSw2MjYuNzUgWiBNNTYzLjA2MjUsNjI3LjQzNzUgUTU2My4wNjI1LDYyNy40Mzc1IDU2My4wNjI1LDYxOC4yNSBMNTYxLjMxMjUsNjE4LjI1IFE1NjEuMzEyNSw2MTguMjUgNTYxLjMxMjUsNjI3LjQzNzUgTDU2My4wNjI1LDYyNy40Mzc1IFogTTU2Ni42MjUsNjI3LjQzNzUgTDU2OC4zNzUsNjI3LjQzNzUgUTU2OC4zNzUsNjI3LjQzNzUgNTY4LjM3NSw2MjQuNjI1IEw1NjYuNjI1LDYyNC42MjUgUTU2Ni42MjUsNjI0LjYyNSA1NjYuNjI1LDYyNy40Mzc1IFogTTU2Ni42MjUsNjE4LjI1IFE1NjYuNjI1LDYxOC4yNSA1NjYuNjI1LDYyMS4wNjI1IEw1NjguMzc1LDYyMS4wNjI1IFE1NjguMzc1LDYyMS4wNjI1IDU2OC4zNzUsNjE4LjI1IEw1NjYuNjI1LDYxOC4yNSBaIE01NjIuMzc1LDYxOC45Mzc1IEw1NjcuMzEyNSw2MTguOTM3NSBMNTY3LjMxMjUsNjE3LjE4NzUgTDU2Mi4zNzUsNjE3LjE4NzUgTDU2Mi4zNzUsNjE4LjkzNzUgWiAiIGZpbGw9IiMwMDAwMDAiLz48dGV4dCBmaWxsPSIjMDAwMDAwIiBmb250LWZhbWlseT0ic2Fucy1zZXJpZiIgZm9udC1zaXplPSIxNCIgbGVuZ3RoQWRqdXN0PSJzcGFjaW5nIiB0ZXh0TGVuZ3RoPSI0MiIgeD0iNTg1LjI1IiB5PSI2MjguMjQyMiI+TG9nZ2VyPC90ZXh0PjxsaW5lIHN0eWxlPSJzdHJva2U6IzE4MTgxODtzdHJva2Utd2lkdGg6MC41OyIgeDE9IjQ4NS41IiB4Mj0iNjk0LjUiIHkxPSI2MzguNSIgeTI9IjYzOC41Ii8+PGxpbmUgc3R5bGU9InN0cm9rZTojMTgxODE4O3N0cm9rZS13aWR0aDowLjU7IiB4MT0iNDg1LjUiIHgyPSI2OTQuNSIgeTE9IjY0Ni41IiB5Mj0iNjQ2LjUiLz48ZWxsaXBzZSBjeD0iNDk1LjUiIGN5PSI2NTkuNDkyMiIgZmlsbD0iIzg0QkU4NCIgcng9IjMiIHJ5PSIzIiBzdHlsZT0ic3Ryb2tlOiMwMzgwNDg7c3Ryb2tlLXdpZHRoOjEuMDsiLz48dGV4dCBmaWxsPSIjMDAwMDAwIiBmb250LWZhbWlseT0ic2Fucy1zZXJpZiIgZm9udC1zaXplPSIxNCIgbGVuZ3RoQWRqdXN0PSJzcGFjaW5nIiB0ZXh0TGVuZ3RoPSIxODUiIHg9IjUwNC41IiB5PSI2NjMuNzM0NCI+bG9nKG1lc3NhZ2U6IFN0cmluZyk6IHZvaWQ8L3RleHQ+PC9nPjwhLS1jbGFzcyBBdXRoZW50aWNhdGlvblNlcnZpY2UtLT48ZyBpZD0iZWxlbV9BdXRoZW50aWNhdGlvblNlcnZpY2UiPjxyZWN0IGNvZGVMaW5lPSI2MSIgZmlsbD0iI0YxRjFGMSIgaGVpZ2h0PSI3Ny45Njg4IiBpZD0iQXV0aGVudGljYXRpb25TZXJ2aWNlIiByeD0iMi41IiByeT0iMi41IiBzdHlsZT0ic3Ryb2tlOiMxODE4MTg7c3Ryb2tlLXdpZHRoOjAuNTsiIHdpZHRoPSI0MDEiIHg9IjczMC41IiB5PSI1OTkiLz48ZWxsaXBzZSBjeD0iODUzLjI1IiBjeT0iNjE1IiBmaWxsPSIjQUREMUIyIiByeD0iMTEiIHJ5PSIxMSIgc3R5bGU9InN0cm9rZTojMTgxODE4O3N0cm9rZS13aWR0aDoxLjA7Ii8+PHBhdGggZD0iTTg1MC44NzUsNjE5LjI1IEw4NTAuODc1LDYyMSBMODU1LjgxMjUsNjIxIEw4NTUuODEyNSw2MTkuMjUgTDg1MC44NzUsNjE5LjI1IFogTTg1MS41NjI1LDYxOS45Mzc1IFE4NTEuNTYyNSw2MTkuOTM3NSA4NTEuNTYyNSw2MTAuNzUgTDg0OS44MTI1LDYxMC43NSBRODQ5LjgxMjUsNjEwLjc1IDg0OS44MTI1LDYxOS45Mzc1IEw4NTEuNTYyNSw2MTkuOTM3NSBaIE04NTUuMTI1LDYxOS45Mzc1IEw4NTYuODc1LDYxOS45Mzc1IFE4NTYuODc1LDYxOS45Mzc1IDg1Ni44NzUsNjE3LjEyNSBMODU1LjEyNSw2MTcuMTI1IFE4NTUuMTI1LDYxNy4xMjUgODU1LjEyNSw2MTkuOTM3NSBaIE04NTUuMTI1LDYxMC43NSBRODU1LjEyNSw2MTAuNzUgODU1LjEyNSw2MTMuNTYyNSBMODU2Ljg3NSw2MTMuNTYyNSBRODU2Ljg3NSw2MTMuNTYyNSA4NTYuODc1LDYxMC43NSBMODU1LjEyNSw2MTAuNzUgWiBNODUwLjg3NSw2MTEuNDM3NSBMODU1LjgxMjUsNjExLjQzNzUgTDg1NS44MTI1LDYwOS42ODc1IEw4NTAuODc1LDYwOS42ODc1IEw4NTAuODc1LDYxMS40Mzc1IFogIiBmaWxsPSIjMDAwMDAwIi8+PHRleHQgZmlsbD0iIzAwMDAwMCIgZm9udC1mYW1pbHk9InNhbnMtc2VyaWYiIGZvbnQtc2l6ZT0iMTQiIGxlbmd0aEFkanVzdD0ic3BhY2luZyIgdGV4dExlbmd0aD0iMTQ3IiB4PSI4NzMuNzUiIHk9IjYyMC43NDIyIj5BdXRoZW50aWNhdGlvblNlcnZpY2U8L3RleHQ+PGxpbmUgc3R5bGU9InN0cm9rZTojMTgxODE4O3N0cm9rZS13aWR0aDowLjU7IiB4MT0iNzMxLjUiIHgyPSIxMTMwLjUiIHkxPSI2MzEiIHkyPSI2MzEiLz48bGluZSBzdHlsZT0ic3Ryb2tlOiMxODE4MTg7c3Ryb2tlLXdpZHRoOjAuNTsiIHgxPSI3MzEuNSIgeDI9IjExMzAuNSIgeTE9IjYzOSIgeTI9IjYzOSIvPjxlbGxpcHNlIGN4PSI3NDEuNSIgY3k9IjY1MS45OTIyIiBmaWxsPSIjODRCRTg0IiByeD0iMyIgcnk9IjMiIHN0eWxlPSJzdHJva2U6IzAzODA0ODtzdHJva2Utd2lkdGg6MS4wOyIvPjx0ZXh0IGZpbGw9IiMwMDAwMDAiIGZvbnQtZmFtaWx5PSJzYW5zLXNlcmlmIiBmb250LXNpemU9IjE0IiBsZW5ndGhBZGp1c3Q9InNwYWNpbmciIHRleHRMZW5ndGg9IjM3NSIgeD0iNzUwLjUiIHk9IjY1Ni4yMzQ0Ij5yZWdpc3Rlcih1c2VybmFtZTogU3RyaW5nLCBwYXNzd29yZDogU3RyaW5nKTogYm9vbGVhbjwvdGV4dD48ZWxsaXBzZSBjeD0iNzQxLjUiIGN5PSI2NjYuOTc2NiIgZmlsbD0iIzg0QkU4NCIgcng9IjMiIHJ5PSIzIiBzdHlsZT0ic3Ryb2tlOiMwMzgwNDg7c3Ryb2tlLXdpZHRoOjEuMDsiLz48dGV4dCBmaWxsPSIjMDAwMDAwIiBmb250LWZhbWlseT0ic2Fucy1zZXJpZiIgZm9udC1zaXplPSIxNCIgbGVuZ3RoQWRqdXN0PSJzcGFjaW5nIiB0ZXh0TGVuZ3RoPSIzNTQiIHg9Ijc1MC41IiB5PSI2NzEuMjE4OCI+bG9naW4odXNlcm5hbWU6IFN0cmluZywgcGFzc3dvcmQ6IFN0cmluZyk6IGJvb2xlYW48L3RleHQ+PC9nPjwhLS1jbGFzcyBTaG9wcGluZ0FwcEZ1bmN0aW9ucy0tPjxnIGlkPSJlbGVtX1Nob3BwaW5nQXBwRnVuY3Rpb25zIj48cmVjdCBjb2RlTGluZT0iNjYiIGZpbGw9IiNGMUYxRjEiIGhlaWdodD0iMTUyLjg5MDYiIGlkPSJTaG9wcGluZ0FwcEZ1bmN0aW9ucyIgcng9IjIuNSIgcnk9IjIuNSIgc3R5bGU9InN0cm9rZTojMTgxODE4O3N0cm9rZS13aWR0aDowLjU7IiB3aWR0aD0iMzQ1IiB4PSIxOTAuNSIgeT0iMzg2Ii8+PGVsbGlwc2UgY3g9IjI4OC43NSIgY3k9IjQwMiIgZmlsbD0iI0FERDFCMiIgcng9IjExIiByeT0iMTEiIHN0eWxlPSJzdHJva2U6IzE4MTgxODtzdHJva2Utd2lkdGg6MS4wOyIvPjxwYXRoIGQ9Ik0yODYuMzc1LDQwNi4yNSBMMjg2LjM3NSw0MDggTDI5MS4zMTI1LDQwOCBMMjkxLjMxMjUsNDA2LjI1IEwyODYuMzc1LDQwNi4yNSBaIE0yODcuMDYyNSw0MDYuOTM3NSBRMjg3LjA2MjUsNDA2LjkzNzUgMjg3LjA2MjUsMzk3Ljc1IEwyODUuMzEyNSwzOTcuNzUgUTI4NS4zMTI1LDM5Ny43NSAyODUuMzEyNSw0MDYuOTM3NSBMMjg3LjA2MjUsNDA2LjkzNzUgWiBNMjkwLjYyNSw0MDYuOTM3NSBMMjkyLjM3NSw0MDYuOTM3NSBRMjkyLjM3NSw0MDYuOTM3NSAyOTIuMzc1LDQwNC4xMjUgTDI5MC42MjUsNDA0LjEyNSBRMjkwLjYyNSw0MDQuMTI1IDI5MC42MjUsNDA2LjkzNzUgWiBNMjkwLjYyNSwzOTcuNzUgUTI5MC42MjUsMzk3Ljc1IDI5MC42MjUsNDAwLjU2MjUgTDI5Mi4zNzUsNDAwLjU2MjUgUTI5Mi4zNzUsNDAwLjU2MjUgMjkyLjM3NSwzOTcuNzUgTDI5MC42MjUsMzk3Ljc1IFogTTI4Ni4zNzUsMzk4LjQzNzUgTDI5MS4zMTI1LDM5OC40Mzc1IEwyOTEuMzEyNSwzOTYuNjg3NSBMMjg2LjM3NSwzOTYuNjg3NSBMMjg2LjM3NSwzOTguNDM3NSBaICIgZmlsbD0iIzAwMDAwMCIvPjx0ZXh0IGZpbGw9IiMwMDAwMDAiIGZvbnQtZmFtaWx5PSJzYW5zLXNlcmlmIiBmb250LXNpemU9IjE0IiBsZW5ndGhBZGp1c3Q9InNwYWNpbmciIHRleHRMZW5ndGg9IjE0MCIgeD0iMzA5LjI1IiB5PSI0MDcuNzQyMiI+U2hvcHBpbmdBcHBGdW5jdGlvbnM8L3RleHQ+PGxpbmUgc3R5bGU9InN0cm9rZTojMTgxODE4O3N0cm9rZS13aWR0aDowLjU7IiB4MT0iMTkxLjUiIHgyPSI1MzQuNSIgeTE9IjQxOCIgeTI9IjQxOCIvPjxsaW5lIHN0eWxlPSJzdHJva2U6IzE4MTgxODtzdHJva2Utd2lkdGg6MC41OyIgeDE9IjE5MS41IiB4Mj0iNTM0LjUiIHkxPSI0MjYiIHkyPSI0MjYiLz48ZWxsaXBzZSBjeD0iMjAxLjUiIGN5PSI0MzguOTkyMiIgZmlsbD0iIzg0QkU4NCIgcng9IjMiIHJ5PSIzIiBzdHlsZT0ic3Ryb2tlOiMwMzgwNDg7c3Ryb2tlLXdpZHRoOjEuMDsiLz48dGV4dCBmaWxsPSIjMDAwMDAwIiBmb250LWZhbWlseT0ic2Fucy1zZXJpZiIgZm9udC1zaXplPSIxNCIgbGVuZ3RoQWRqdXN0PSJzcGFjaW5nIiB0ZXh0TGVuZ3RoPSIyMjYiIHg9IjIxMC41IiB5PSI0NDMuMjM0NCI+cmVnaXN0ZXIoc2Nhbm5lcjogU2Nhbm5lcik6IHZvaWQ8L3RleHQ+PGVsbGlwc2UgY3g9IjIwMS41IiBjeT0iNDUzLjk3NjYiIGZpbGw9IiM4NEJFODQiIHJ4PSIzIiByeT0iMyIgc3R5bGU9InN0cm9rZTojMDM4MDQ4O3N0cm9rZS13aWR0aDoxLjA7Ii8+PHRleHQgZmlsbD0iIzAwMDAwMCIgZm9udC1mYW1pbHk9InNhbnMtc2VyaWYiIGZvbnQtc2l6ZT0iMTQiIGxlbmd0aEFkanVzdD0ic3BhY2luZyIgdGV4dExlbmd0aD0iMjA1IiB4PSIyMTAuNSIgeT0iNDU4LjIxODgiPmxvZ2luKHNjYW5uZXI6IFNjYW5uZXIpOiB2b2lkPC90ZXh0PjxlbGxpcHNlIGN4PSIyMDEuNSIgY3k9IjQ2OC45NjA5IiBmaWxsPSIjODRCRTg0IiByeD0iMyIgcnk9IjMiIHN0eWxlPSJzdHJva2U6IzAzODA0ODtzdHJva2Utd2lkdGg6MS4wOyIvPjx0ZXh0IGZpbGw9IiMwMDAwMDAiIGZvbnQtZmFtaWx5PSJzYW5zLXNlcmlmIiBmb250LXNpemU9IjE0IiBsZW5ndGhBZGp1c3Q9InNwYWNpbmciIHRleHRMZW5ndGg9IjE1NyIgeD0iMjEwLjUiIHk9IjQ3My4yMDMxIj5icm93c2VQcm9kdWN0cygpOiB2b2lkPC90ZXh0PjxlbGxpcHNlIGN4PSIyMDEuNSIgY3k9IjQ4My45NDUzIiBmaWxsPSIjODRCRTg0IiByeD0iMyIgcnk9IjMiIHN0eWxlPSJzdHJva2U6IzAzODA0ODtzdHJva2Utd2lkdGg6MS4wOyIvPjx0ZXh0IGZpbGw9IiMwMDAwMDAiIGZvbnQtZmFtaWx5PSJzYW5zLXNlcmlmIiBmb250LXNpemU9IjE0IiBsZW5ndGhBZGp1c3Q9InNwYWNpbmciIHRleHRMZW5ndGg9IjI4MiIgeD0iMjEwLjUiIHk9IjQ4OC4xODc1Ij5hZGRQcm9kdWN0VG9DYXJ0KHNjYW5uZXI6IFNjYW5uZXIpOiB2b2lkPC90ZXh0PjxlbGxpcHNlIGN4PSIyMDEuNSIgY3k9IjQ5OC45Mjk3IiBmaWxsPSIjODRCRTg0IiByeD0iMyIgcnk9IjMiIHN0eWxlPSJzdHJva2U6IzAzODA0ODtzdHJva2Utd2lkdGg6MS4wOyIvPjx0ZXh0IGZpbGw9IiMwMDAwMDAiIGZvbnQtZmFtaWx5PSJzYW5zLXNlcmlmIiBmb250LXNpemU9IjE0IiBsZW5ndGhBZGp1c3Q9InNwYWNpbmciIHRleHRMZW5ndGg9IjMxOSIgeD0iMjEwLjUiIHk9IjUwMy4xNzE5Ij5yZW1vdmVQcm9kdWN0RnJvbUNhcnQoc2Nhbm5lcjogU2Nhbm5lcik6IHZvaWQ8L3RleHQ+PGVsbGlwc2UgY3g9IjIwMS41IiBjeT0iNTEzLjkxNDEiIGZpbGw9IiM4NEJFODQiIHJ4PSIzIiByeT0iMyIgc3R5bGU9InN0cm9rZTojMDM4MDQ4O3N0cm9rZS13aWR0aDoxLjA7Ii8+PHRleHQgZmlsbD0iIzAwMDAwMCIgZm9udC1mYW1pbHk9InNhbnMtc2VyaWYiIGZvbnQtc2l6ZT0iMTQiIGxlbmd0aEFkanVzdD0ic3BhY2luZyIgdGV4dExlbmd0aD0iMTE1IiB4PSIyMTAuNSIgeT0iNTE4LjE1NjMiPnZpZXdDYXJ0KCk6IHZvaWQ8L3RleHQ+PGVsbGlwc2UgY3g9IjIwMS41IiBjeT0iNTI4Ljg5ODQiIGZpbGw9IiM4NEJFODQiIHJ4PSIzIiByeT0iMyIgc3R5bGU9InN0cm9rZTojMDM4MDQ4O3N0cm9rZS13aWR0aDoxLjA7Ii8+PHRleHQgZmlsbD0iIzAwMDAwMCIgZm9udC1mYW1pbHk9InNhbnMtc2VyaWYiIGZvbnQtc2l6ZT0iMTQiIGxlbmd0aEFkanVzdD0ic3BhY2luZyIgdGV4dExlbmd0aD0iMjQwIiB4PSIyMTAuNSIgeT0iNTMzLjE0MDYiPnBsYWNlT3JkZXIoc2Nhbm5lcjogU2Nhbm5lcik6IHZvaWQ8L3RleHQ+PC9nPjwhLS1jbGFzcyBTaG9wcGluZ0FwcFVJLS0+PGcgaWQ9ImVsZW1fU2hvcHBpbmdBcHBVSSI+PHJlY3QgY29kZUxpbmU9Ijc2IiBmaWxsPSIjRjFGMUYxIiBoZWlnaHQ9IjYyLjk4NDQiIGlkPSJTaG9wcGluZ0FwcFVJIiByeD0iMi41IiByeT0iMi41IiBzdHlsZT0ic3Ryb2tlOiMxODE4MTg7c3Ryb2tlLXdpZHRoOjAuNTsiIHdpZHRoPSIxMjMiIHg9IjMwMS41IiB5PSIyNjMiLz48ZWxsaXBzZSBjeD0iMzE2LjUiIGN5PSIyNzkiIGZpbGw9IiNBREQxQjIiIHJ4PSIxMSIgcnk9IjExIiBzdHlsZT0ic3Ryb2tlOiMxODE4MTg7c3Ryb2tlLXdpZHRoOjEuMDsiLz48cGF0aCBkPSJNMzE0LjEyNSwyODMuMjUgTDMxNC4xMjUsMjg1IEwzMTkuMDYyNSwyODUgTDMxOS4wNjI1LDI4My4yNSBMMzE0LjEyNSwyODMuMjUgWiBNMzE0LjgxMjUsMjgzLjkzNzUgUTMxNC44MTI1LDI4My45Mzc1IDMxNC44MTI1LDI3NC43NSBMMzEzLjA2MjUsMjc0Ljc1IFEzMTMuMDYyNSwyNzQuNzUgMzEzLjA2MjUsMjgzLjkzNzUgTDMxNC44MTI1LDI4My45Mzc1IFogTTMxOC4zNzUsMjgzLjkzNzUgTDMyMC4xMjUsMjgzLjkzNzUgUTMyMC4xMjUsMjgzLjkzNzUgMzIwLjEyNSwyODEuMTI1IEwzMTguMzc1LDI4MS4xMjUgUTMxOC4zNzUsMjgxLjEyNSAzMTguMzc1LDI4My45Mzc1IFogTTMxOC4zNzUsMjc0Ljc1IFEzMTguMzc1LDI3NC43NSAzMTguMzc1LDI3Ny41NjI1IEwzMjAuMTI1LDI3Ny41NjI1IFEzMjAuMTI1LDI3Ny41NjI1IDMyMC4xMjUsMjc0Ljc1IEwzMTguMzc1LDI3NC43NSBaIE0zMTQuMTI1LDI3NS40Mzc1IEwzMTkuMDYyNSwyNzUuNDM3NSBMMzE5LjA2MjUsMjczLjY4NzUgTDMxNC4xMjUsMjczLjY4NzUgTDMxNC4xMjUsMjc1LjQzNzUgWiAiIGZpbGw9IiMwMDAwMDAiLz48dGV4dCBmaWxsPSIjMDAwMDAwIiBmb250LWZhbWlseT0ic2Fucy1zZXJpZiIgZm9udC1zaXplPSIxNCIgbGVuZ3RoQWRqdXN0PSJzcGFjaW5nIiB0ZXh0TGVuZ3RoPSI5MSIgeD0iMzMwLjUiIHk9IjI4NC43NDIyIj5TaG9wcGluZ0FwcFVJPC90ZXh0PjxsaW5lIHN0eWxlPSJzdHJva2U6IzE4MTgxODtzdHJva2Utd2lkdGg6MC41OyIgeDE9IjMwMi41IiB4Mj0iNDIzLjUiIHkxPSIyOTUiIHkyPSIyOTUiLz48bGluZSBzdHlsZT0ic3Ryb2tlOiMxODE4MTg7c3Ryb2tlLXdpZHRoOjAuNTsiIHgxPSIzMDIuNSIgeDI9IjQyMy41IiB5MT0iMzAzIiB5Mj0iMzAzIi8+PGVsbGlwc2UgY3g9IjMxMi41IiBjeT0iMzE1Ljk5MjIiIGZpbGw9IiM4NEJFODQiIHJ4PSIzIiByeT0iMyIgc3R5bGU9InN0cm9rZTojMDM4MDQ4O3N0cm9rZS13aWR0aDoxLjA7Ii8+PHRleHQgZmlsbD0iIzAwMDAwMCIgZm9udC1mYW1pbHk9InNhbnMtc2VyaWYiIGZvbnQtc2l6ZT0iMTQiIGxlbmd0aEFkanVzdD0ic3BhY2luZyIgdGV4dExlbmd0aD0iNzkiIHg9IjMyMS41IiB5PSIzMjAuMjM0NCI+cnVuKCk6IHZvaWQ8L3RleHQ+PC9nPjwhLS1jbGFzcyBNYWluQ2xhc3MtLT48ZyBpZD0iZWxlbV9NYWluQ2xhc3MiPjxyZWN0IGNvZGVMaW5lPSI4MCIgZmlsbD0iI0YxRjFGMSIgaGVpZ2h0PSI2Mi45ODQ0IiBpZD0iTWFpbkNsYXNzIiByeD0iMi41IiByeT0iMi41IiBzdHlsZT0ic3Ryb2tlOiMxODE4MTg7c3Ryb2tlLXdpZHRoOjAuNTsiIHdpZHRoPSIyMTEiIHg9IjI1Ny41IiB5PSIxMTAiLz48ZWxsaXBzZSBjeD0iMzI3LjI1IiBjeT0iMTI2IiBmaWxsPSIjQUREMUIyIiByeD0iMTEiIHJ5PSIxMSIgc3R5bGU9InN0cm9rZTojMTgxODE4O3N0cm9rZS13aWR0aDoxLjA7Ii8+PHBhdGggZD0iTTMyNC44NzUsMTMwLjI1IEwzMjQuODc1LDEzMiBMMzI5LjgxMjUsMTMyIEwzMjkuODEyNSwxMzAuMjUgTDMyNC44NzUsMTMwLjI1IFogTTMyNS41NjI1LDEzMC45Mzc1IFEzMjUuNTYyNSwxMzAuOTM3NSAzMjUuNTYyNSwxMjEuNzUgTDMyMy44MTI1LDEyMS43NSBRMzIzLjgxMjUsMTIxLjc1IDMyMy44MTI1LDEzMC45Mzc1IEwzMjUuNTYyNSwxMzAuOTM3NSBaIE0zMjkuMTI1LDEzMC45Mzc1IEwzMzAuODc1LDEzMC45Mzc1IFEzMzAuODc1LDEzMC45Mzc1IDMzMC44NzUsMTI4LjEyNSBMMzI5LjEyNSwxMjguMTI1IFEzMjkuMTI1LDEyOC4xMjUgMzI5LjEyNSwxMzAuOTM3NSBaIE0zMjkuMTI1LDEyMS43NSBRMzI5LjEyNSwxMjEuNzUgMzI5LjEyNSwxMjQuNTYyNSBMMzMwLjg3NSwxMjQuNTYyNSBRMzMwLjg3NSwxMjQuNTYyNSAzMzAuODc1LDEyMS43NSBMMzI5LjEyNSwxMjEuNzUgWiBNMzI0Ljg3NSwxMjIuNDM3NSBMMzI5LjgxMjUsMTIyLjQzNzUgTDMyOS44MTI1LDEyMC42ODc1IEwzMjQuODc1LDEyMC42ODc1IEwzMjQuODc1LDEyMi40Mzc1IFogIiBmaWxsPSIjMDAwMDAwIi8+PHRleHQgZmlsbD0iIzAwMDAwMCIgZm9udC1mYW1pbHk9InNhbnMtc2VyaWYiIGZvbnQtc2l6ZT0iMTQiIGxlbmd0aEFkanVzdD0ic3BhY2luZyIgdGV4dExlbmd0aD0iNjMiIHg9IjM0Ny43NSIgeT0iMTMxLjc0MjIiPk1haW5DbGFzczwvdGV4dD48bGluZSBzdHlsZT0ic3Ryb2tlOiMxODE4MTg7c3Ryb2tlLXdpZHRoOjAuNTsiIHgxPSIyNTguNSIgeDI9IjQ2Ny41IiB5MT0iMTQyIiB5Mj0iMTQyIi8+PGxpbmUgc3R5bGU9InN0cm9rZTojMTgxODE4O3N0cm9rZS13aWR0aDowLjU7IiB4MT0iMjU4LjUiIHgyPSI0NjcuNSIgeTE9IjE1MCIgeTI9IjE1MCIvPjxlbGxpcHNlIGN4PSIyNjguNSIgY3k9IjE2Mi45OTIyIiBmaWxsPSIjODRCRTg0IiByeD0iMyIgcnk9IjMiIHN0eWxlPSJzdHJva2U6IzAzODA0ODtzdHJva2Utd2lkdGg6MS4wOyIvPjx0ZXh0IGZpbGw9IiMwMDAwMDAiIGZvbnQtZmFtaWx5PSJzYW5zLXNlcmlmIiBmb250LXNpemU9IjE0IiBsZW5ndGhBZGp1c3Q9InNwYWNpbmciIHRleHRMZW5ndGg9IjE4NSIgeD0iMjc3LjUiIHk9IjE2Ny4yMzQ0Ij5tYWluKGFyZ3M6IFN0cmluZ1tdKTogdm9pZDwvdGV4dD48L2c+PCEtLXJldmVyc2UgbGluayBQcm9kdWN0IHRvIEVsZWN0cm9uaWNzLS0+PGcgaWQ9ImxpbmtfUHJvZHVjdF9FbGVjdHJvbmljcyI+PHBhdGggZD0iTTQ2MS45NywxMjI3LjY2NzUgQzQ1Mi4xMiwxMjQ4Ljc0NzUgNDQ5LjMsMTI1NC44MSA0NDEuNzYsMTI3MC45NSAiIGZpbGw9Im5vbmUiIGlkPSJQcm9kdWN0LWJhY2t0by1FbGVjdHJvbmljcyIgc3R5bGU9InN0cm9rZTojMTgxODE4O3N0cm9rZS13aWR0aDoxLjA7Ii8+PHBvbHlnb24gZmlsbD0ibm9uZSIgcG9pbnRzPSI0NjkuNTksMTIxMS4zNiw0NTYuNTM0MiwxMjI1LjEyNzUsNDY3LjQwNTksMTIzMC4yMDc1LDQ2OS41OSwxMjExLjM2IiBzdHlsZT0ic3Ryb2tlOiMxODE4MTg7c3Ryb2tlLXdpZHRoOjEuMDsiLz48L2c+PCEtLXJldmVyc2UgbGluayBQcm9kdWN0IHRvIENsb3RoaW5nLS0+PGcgaWQ9ImxpbmtfUHJvZHVjdF9DbG90aGluZyI+PHBhdGggZD0iTTUzNC4wMywxMjI3LjY2NzUgQzU0My44OCwxMjQ4Ljc0NzUgNTQ2LjcsMTI1NC44MSA1NTQuMjQsMTI3MC45NSAiIGZpbGw9Im5vbmUiIGlkPSJQcm9kdWN0LWJhY2t0by1DbG90aGluZyIgc3R5bGU9InN0cm9rZTojMTgxODE4O3N0cm9rZS13aWR0aDoxLjA7Ii8+PHBvbHlnb24gZmlsbD0ibm9uZSIgcG9pbnRzPSI1MjYuNDEsMTIxMS4zNiw1MjguNTk0MSwxMjMwLjIwNzUsNTM5LjQ2NTgsMTIyNS4xMjc1LDUyNi40MSwxMjExLjM2IiBzdHlsZT0ic3Ryb2tlOiMxODE4MTg7c3Ryb2tlLXdpZHRoOjEuMDsiLz48L2c+PCEtLWxpbmsgU2hvcHBpbmdDYXJ0IHRvIFByb2R1Y3QtLT48ZyBpZD0ibGlua19TaG9wcGluZ0NhcnRfUHJvZHVjdCI+PHBhdGggY29kZUxpbmU9Ijg0IiBkPSJNNjM4LjQ1LDEwMjguMDIgQzYxNi4wNCwxMDQ3LjI0IDYwNC45Mjk3LDEwNTYuNzY3NyA1ODIuNTA5NywxMDc2LjAwNzcgIiBmaWxsPSJub25lIiBpZD0iU2hvcHBpbmdDYXJ0LXRvLVByb2R1Y3QiIHN0eWxlPSJzdHJva2U6IzE4MTgxODtzdHJva2Utd2lkdGg6MS4wOyIvPjxwb2x5Z29uIGZpbGw9Im5vbmUiIHBvaW50cz0iNTY4Ljg1LDEwODcuNzMsNTg2LjQxNzIsMTA4MC41NjEsNTc4LjYwMjMsMTA3MS40NTQ1LDU2OC44NSwxMDg3LjczIiBzdHlsZT0ic3Ryb2tlOiMxODE4MTg7c3Ryb2tlLXdpZHRoOjEuMDsiLz48L2c+PCEtLWxpbmsgQ2FydEJ1aWxkZXIgdG8gU2hvcHBpbmdDYXJ0LS0+PGcgaWQ9ImxpbmtfQ2FydEJ1aWxkZXJfU2hvcHBpbmdDYXJ0Ij48cGF0aCBjb2RlTGluZT0iODUiIGQ9Ik05MTQuODcsODQ1LjIzIEM4ODIuNTYsODY0LjExIDg1MS4xNDA5LDg4Mi40NjM3IDgxNy44NjA5LDkwMS45MDM3ICIgZmlsbD0ibm9uZSIgaWQ9IkNhcnRCdWlsZGVyLXRvLVNob3BwaW5nQ2FydCIgc3R5bGU9InN0cm9rZTojMTgxODE4O3N0cm9rZS13aWR0aDoxLjA7Ii8+PHBvbHlnb24gZmlsbD0iIzE4MTgxOCIgcG9pbnRzPSI4MTIuNjgsOTA0LjkzLDgyMi40Njg4LDkwMy44NDQ0LDgxNi45OTc0LDkwMi40MDgxLDgxOC40MzM3LDg5Ni45MzY2LDgxMi42OCw5MDQuOTMiIHN0eWxlPSJzdHJva2U6IzE4MTgxODtzdHJva2Utd2lkdGg6MS4wOyIvPjwvZz48IS0tbGluayBQcm9kdWN0RmFjdG9yeSB0byBQcm9kdWN0LS0+PGcgaWQ9ImxpbmtfUHJvZHVjdEZhY3RvcnlfUHJvZHVjdCI+PHBhdGggY29kZUxpbmU9Ijg2IiBkPSJNMzIzLjYyLDk5OC4yIEMzNTIuMDYsMTAyMi43MSAzODguMjM1NSwxMDUzLjg5MjQgNDIzLjE3NTUsMTA4NC4wMTI0ICIgZmlsbD0ibm9uZSIgaWQ9IlByb2R1Y3RGYWN0b3J5LXRvLVByb2R1Y3QiIHN0eWxlPSJzdHJva2U6IzE4MTgxODtzdHJva2Utd2lkdGg6MS4wOyIvPjxwb2x5Z29uIGZpbGw9IiMxODE4MTgiIHBvaW50cz0iNDI3LjcyLDEwODcuOTMsNDIzLjUxNSwxMDc5LjAyNCw0MjMuOTMyOSwxMDg0LjY2NTMsNDE4LjI5MTUsMTA4NS4wODMzLDQyNy43MiwxMDg3LjkzIiBzdHlsZT0ic3Ryb2tlOiMxODE4MTg7c3Ryb2tlLXdpZHRoOjEuMDsiLz48L2c+PCEtLWxpbmsgU2hvcHBpbmdBcHBGdW5jdGlvbnMgdG8gU2hvcHBpbmdDYXJ0LS0+PGcgaWQ9ImxpbmtfU2hvcHBpbmdBcHBGdW5jdGlvbnNfU2hvcHBpbmdDYXJ0Ij48cGF0aCBjb2RlTGluZT0iODciIGQ9Ik0xOTAuMzIsNTM4LjE4IEMxNjYuMDcsNTU1LjEgMTQzLjc1LDU3NS4yNiAxMjcsNTk5IEM5NS4zMiw2NDMuOSA2NS44Myw4MDMuNjQgMTAyLDg0NSBDMTY3LjgzLDkyMC4yOCA0NTEuMDIsODgwLjU5IDU0OCw5MDUgQzU1My41LDkwNi4zOCA1NTMuMzAyOCw5MDYuMjQ0OSA1NTguOTEyOCw5MDcuODU0OSAiIGZpbGw9Im5vbmUiIGlkPSJTaG9wcGluZ0FwcEZ1bmN0aW9ucy10by1TaG9wcGluZ0NhcnQiIHN0eWxlPSJzdHJva2U6IzE4MTgxODtzdHJva2Utd2lkdGg6MS4wOyIvPjxwb2x5Z29uIGZpbGw9IiMxODE4MTgiIHBvaW50cz0iNTY0LjY4LDkwOS41MSw1NTcuMTMyNiw5MDMuMTgyNSw1NTkuODc0LDkwOC4xMzA3LDU1NC45MjU4LDkxMC44NzIxLDU2NC42OCw5MDkuNTEiIHN0eWxlPSJzdHJva2U6IzE4MTgxODtzdHJva2Utd2lkdGg6MS4wOyIvPjwvZz48IS0tbGluayBTaG9wcGluZ0FwcEZ1bmN0aW9ucyB0byBBdXRoZW50aWNhdGlvblNlcnZpY2UtLT48ZyBpZD0ibGlua19TaG9wcGluZ0FwcEZ1bmN0aW9uc19BdXRoZW50aWNhdGlvblNlcnZpY2UiPjxwYXRoIGNvZGVMaW5lPSI4OCIgZD0iTTUzNS43Myw1MTYuMjYgQzYyMy4wNCw1NDIuOTMgNzIxLjI3MTcsNTcyLjkzNzIgODAwLjY2MTcsNTk3LjE4NzIgIiBmaWxsPSJub25lIiBpZD0iU2hvcHBpbmdBcHBGdW5jdGlvbnMtdG8tQXV0aGVudGljYXRpb25TZXJ2aWNlIiBzdHlsZT0ic3Ryb2tlOiMxODE4MTg7c3Ryb2tlLXdpZHRoOjEuMDsiLz48cG9seWdvbiBmaWxsPSIjMTgxODE4IiBwb2ludHM9IjgwNi40LDU5OC45NCw3OTguOTYxMSw1OTIuNDg1Myw4MDEuNjE4MSw1OTcuNDc5NCw3OTYuNjI0MSw2MDAuMTM2Myw4MDYuNCw1OTguOTQiIHN0eWxlPSJzdHJva2U6IzE4MTgxODtzdHJva2Utd2lkdGg6MS4wOyIvPjwvZz48IS0tbGluayBTaG9wcGluZ0FwcEZ1bmN0aW9ucyB0byBMb2dnZXItLT48ZyBpZD0ibGlua19TaG9wcGluZ0FwcEZ1bmN0aW9uc19Mb2dnZXIiPjxwYXRoIGNvZGVMaW5lPSI4OSIgZD0iTTQ2MS45MSw1MzkuMDkgQzQ5Mi45Nyw1NjIuODQgNTIwLjc1MzYsNTg0LjA2NTcgNTQ1LjI2MzYsNjAyLjgwNTcgIiBmaWxsPSJub25lIiBpZD0iU2hvcHBpbmdBcHBGdW5jdGlvbnMtdG8tTG9nZ2VyIiBzdHlsZT0ic3Ryb2tlOiMxODE4MTg7c3Ryb2tlLXdpZHRoOjEuMDsiLz48cG9seWdvbiBmaWxsPSIjMTgxODE4IiBwb2ludHM9IjU1MC4wMyw2MDYuNDUsNTQ1LjMwOTksNTk3LjgwNTksNTQ2LjA1OCw2MDMuNDEzMSw1NDAuNDUwOCw2MDQuMTYxMSw1NTAuMDMsNjA2LjQ1IiBzdHlsZT0ic3Ryb2tlOiMxODE4MTg7c3Ryb2tlLXdpZHRoOjEuMDsiLz48L2c+PCEtLWxpbmsgU2hvcHBpbmdBcHBGdW5jdGlvbnMgdG8gT3JkZXJTZXJ2aWNlLS0+PGcgaWQ9ImxpbmtfU2hvcHBpbmdBcHBGdW5jdGlvbnNfT3JkZXJTZXJ2aWNlIj48cGF0aCBjb2RlTGluZT0iOTAiIGQ9Ik0zMjUuOTcsNTM5LjA5IEMzMTQuMzMsNTYyLjg0IDMwNC43ODk1LDU4Mi4zMjE4IDI5NS42MDk1LDYwMS4wNjE4ICIgZmlsbD0ibm9uZSIgaWQ9IlNob3BwaW5nQXBwRnVuY3Rpb25zLXRvLU9yZGVyU2VydmljZSIgc3R5bGU9InN0cm9rZTojMTgxODE4O3N0cm9rZS13aWR0aDoxLjA7Ii8+PHBvbHlnb24gZmlsbD0iIzE4MTgxOCIgcG9pbnRzPSIyOTIuOTcsNjA2LjQ1LDMwMC41MjE0LDYwMC4xMjczLDI5NS4xNjk2LDYwMS45NTk4LDI5My4zMzcxLDU5Ni42MDgsMjkyLjk3LDYwNi40NSIgc3R5bGU9InN0cm9rZTojMTgxODE4O3N0cm9rZS13aWR0aDoxLjA7Ii8+PC9nPjwhLS1saW5rIFNob3BwaW5nQXBwRnVuY3Rpb25zIHRvIFBheW1lbnRTZXJ2aWNlLS0+PGcgaWQ9ImxpbmtfU2hvcHBpbmdBcHBGdW5jdGlvbnNfUGF5bWVudFNlcnZpY2UiPjxwYXRoIGNvZGVMaW5lPSI5MSIgZD0iTTM5OS44MSw1MzkuMDcgQzQyOS43Myw2MDAuNDkgNDY3LDY3NyA0NjcsNjc3IEM1MDAuMDIsNzEyLjU2IDU0MS40MTA2LDczNy42NDMzIDU4MC43NjA2LDc1Ni43MTMzICIgZmlsbD0ibm9uZSIgaWQ9IlNob3BwaW5nQXBwRnVuY3Rpb25zLXRvLVBheW1lbnRTZXJ2aWNlIiBzdHlsZT0ic3Ryb2tlOiMxODE4MTg7c3Ryb2tlLXdpZHRoOjEuMDsiLz48cG9seWdvbiBmaWxsPSIjMTgxODE4IiBwb2ludHM9IjU4Ni4xNiw3NTkuMzMsNTc5LjgwNTQsNzUxLjgwNTQsNTgxLjY2MDUsNzU3LjE0OTQsNTc2LjMxNjUsNzU5LjAwNDYsNTg2LjE2LDc1OS4zMyIgc3R5bGU9InN0cm9rZTojMTgxODE4O3N0cm9rZS13aWR0aDoxLjA7Ii8+PC9nPjwhLS1saW5rIFNob3BwaW5nQXBwRnVuY3Rpb25zIHRvIFByb2R1Y3RGYWN0b3J5LS0+PGcgaWQ9ImxpbmtfU2hvcHBpbmdBcHBGdW5jdGlvbnNfUHJvZHVjdEZhY3RvcnkiPjxwYXRoIGNvZGVMaW5lPSI5MiIgZD0iTTE5MC4zNyw1MDcuNTcgQzE0NS4xNiw1MjcuOCAxMDEuNjUsNTU3LjAxIDc1LDU5OSBDMTYuNDEsNjkxLjMxIDE5LjkyLDc1MC41NSA3NSw4NDUgQzk5LjgzLDg4Ny41NyAxNDAuMzg4Myw5MTMuOTE1OSAxODMuMzM4Myw5MzIuNjA1OSAiIGZpbGw9Im5vbmUiIGlkPSJTaG9wcGluZ0FwcEZ1bmN0aW9ucy10by1Qcm9kdWN0RmFjdG9yeSIgc3R5bGU9InN0cm9rZTojMTgxODE4O3N0cm9rZS13aWR0aDoxLjA7Ii8+PHBvbHlnb24gZmlsbD0iIzE4MTgxOCIgcG9pbnRzPSIxODguODQsOTM1LDE4Mi4xODM2LDkyNy43NDExLDE4NC4yNTUzLDkzMy4wMDQ5LDE3OC45OTE0LDkzNS4wNzY2LDE4OC44NCw5MzUiIHN0eWxlPSJzdHJva2U6IzE4MTgxODtzdHJva2Utd2lkdGg6MS4wOyIvPjwvZz48IS0tbGluayBTaG9wcGluZ0FwcFVJIHRvIFNob3BwaW5nQXBwRnVuY3Rpb25zLS0+PGcgaWQ9ImxpbmtfU2hvcHBpbmdBcHBVSV9TaG9wcGluZ0FwcEZ1bmN0aW9ucyI+PHBhdGggY29kZUxpbmU9IjkzIiBkPSJNMzYzLDMyNi4zMyBDMzYzLDM0My4yMSAzNjMsMzU4LjkzIDM2MywzNzkuOTkgIiBmaWxsPSJub25lIiBpZD0iU2hvcHBpbmdBcHBVSS10by1TaG9wcGluZ0FwcEZ1bmN0aW9ucyIgc3R5bGU9InN0cm9rZTojMTgxODE4O3N0cm9rZS13aWR0aDoxLjA7Ii8+PHBvbHlnb24gZmlsbD0iIzE4MTgxOCIgcG9pbnRzPSIzNjMsMzg1Ljk5LDM2NywzNzYuOTksMzYzLDM4MC45OSwzNTksMzc2Ljk5LDM2MywzODUuOTkiIHN0eWxlPSJzdHJva2U6IzE4MTgxODtzdHJva2Utd2lkdGg6MS4wOyIvPjwvZz48IS0tbGluayBNYWluQ2xhc3MgdG8gU2hvcHBpbmdBcHBVSS0tPjxnIGlkPSJsaW5rX01haW5DbGFzc19TaG9wcGluZ0FwcFVJIj48cGF0aCBjb2RlTGluZT0iOTQiIGQ9Ik0zNjMsMTczLjA2IEMzNjMsMTk5LjI1IDM2MywyMzAuOCAzNjMsMjU2Ljk5ICIgZmlsbD0ibm9uZSIgaWQ9Ik1haW5DbGFzcy10by1TaG9wcGluZ0FwcFVJIiBzdHlsZT0ic3Ryb2tlOiMxODE4MTg7c3Ryb2tlLXdpZHRoOjEuMDsiLz48cG9seWdvbiBmaWxsPSIjMTgxODE4IiBwb2ludHM9IjM2MywyNjIuOTksMzY3LDI1My45OSwzNjMsMjU3Ljk5LDM1OSwyNTMuOTksMzYzLDI2Mi45OSIgc3R5bGU9InN0cm9rZTojMTgxODE4O3N0cm9rZS13aWR0aDoxLjA7Ii8+PC9nPjwhLS1saW5rIE9yZGVyU2VydmljZSB0byBPcmRlci0tPjxnIGlkPSJsaW5rX09yZGVyU2VydmljZV9PcmRlciI+PHBhdGggY29kZUxpbmU9Ijk1IiBkPSJNMjgyLjg2LDY2OS41NiBDMjg2LjI3LDY5MS4wMiAyODkuOTQ3Myw3MTQuMTY0NSAyOTMuNzk3Myw3MzguMzY0NSAiIGZpbGw9Im5vbmUiIGlkPSJPcmRlclNlcnZpY2UtdG8tT3JkZXIiIHN0eWxlPSJzdHJva2U6IzE4MTgxODtzdHJva2Utd2lkdGg6MS4wOyIvPjxwb2x5Z29uIGZpbGw9IiMxODE4MTgiIHBvaW50cz0iMjk0Ljc0LDc0NC4yOSwyOTcuMjc2Myw3MzQuNzczMywyOTMuOTU0NCw3MzkuMzUyMSwyODkuMzc1Niw3MzYuMDMwMiwyOTQuNzQsNzQ0LjI5IiBzdHlsZT0ic3Ryb2tlOiMxODE4MTg7c3Ryb2tlLXdpZHRoOjEuMDsiLz48L2c+PCEtLWxpbmsgT3JkZXIgdG8gU2hvcHBpbmdDYXJ0LS0+PGcgaWQ9ImxpbmtfT3JkZXJfU2hvcHBpbmdDYXJ0Ij48cGF0aCBjb2RlTGluZT0iOTYiIGQ9Ik00MDguOTMsODM3LjU5IEM0NTcuMjIsODU4LjE3IDUwOS40MjA3LDg4MC40MTY5IDU2MS4yODA3LDkwMi41MjY5ICIgZmlsbD0ibm9uZSIgaWQ9Ik9yZGVyLXRvLVNob3BwaW5nQ2FydCIgc3R5bGU9InN0cm9rZTojMTgxODE4O3N0cm9rZS13aWR0aDoxLjA7Ii8+PHBvbHlnb24gZmlsbD0iIzE4MTgxOCIgcG9pbnRzPSI1NjYuOCw5MDQuODgsNTYwLjA4OTgsODk3LjY3MDgsNTYyLjIwMDYsOTAyLjkxOTEsNTU2Ljk1MjMsOTA1LjAyOTksNTY2LjgsOTA0Ljg4IiBzdHlsZT0ic3Ryb2tlOiMxODE4MTg7c3Ryb2tlLXdpZHRoOjEuMDsiLz48L2c+PCEtLWxpbmsgUGF5bWVudFNlcnZpY2UgdG8gU2hvcHBpbmdDYXJ0LS0+PGcgaWQ9ImxpbmtfUGF5bWVudFNlcnZpY2VfU2hvcHBpbmdDYXJ0Ij48cGF0aCBjb2RlTGluZT0iOTciIGQ9Ik02NjkuNDcsODIyLjYyIEM2NzUuNzQsODQ1LjI5IDY4Mi44ODkxLDg3MS4xMjc1IDY5MC41NjkxLDg5OC44Njc1ICIgZmlsbD0ibm9uZSIgaWQ9IlBheW1lbnRTZXJ2aWNlLXRvLVNob3BwaW5nQ2FydCIgc3R5bGU9InN0cm9rZTojMTgxODE4O3N0cm9rZS13aWR0aDoxLjA7Ii8+PHBvbHlnb24gZmlsbD0iIzE4MTgxOCIgcG9pbnRzPSI2OTIuMTcsOTA0LjY1LDY5My42MjM2LDg5NC45MDksNjkwLjgzNTksODk5LjgzMTMsNjg1LjkxMzYsODk3LjA0MzYsNjkyLjE3LDkwNC42NSIgc3R5bGU9InN0cm9rZTojMTgxODE4O3N0cm9rZS13aWR0aDoxLjA7Ii8+PC9nPjwhLS1TUkM9W2RMTkJSWGVuNUR0ZEFxUFAzSUFKM3EwTEtlZ0FYOUlzYUlZaGdXalpObXJNUGNwQjNvWGd5LV9yRkNadURHQ2ZBXzB6dl9aU1hveTJ1TFRLR2RPRm4zbUk0Q1hLenpjVmt5bi1TOE1Lb2RPQVA3X0dWMGZaVnBES21vQlJRYWJQRUtJNFhQLXU5NTVhdGNaYThWNFgybWNwV0w2MnRsTnVWMU9Cc2wxQkpteDJSdFVFem5WOVlTN1FqSnpZTkw5aVptYXQtbWc2UXRmLTdqWHNtUnhkUm5ELTZyT0pTb3hucDd3ZjA2bDk2U0tnV3p5UTYwYUp5RTJoWWtrM2xVR01SMXpROHdvdkYzbGJjNkM5SUNDYkp0cU1KZnZKTUl5a2NsNWJzbUNObWI5TUk3Z0w1bnIxQlI5ZGdsSWRkaF9xWWhIWElZRk1yU2RMNksyOGE4bFJObDNUWWtLU0VJSzNMYUJEWnQwcGw2ckl2eDZ2RnRSZnJ6X1EtY25lSFZwZFdVdG5fdGJ0MTMtR0dmQXJSbXdJRFZISS0ydTN5elRRTDYyWkRBejFuWEZVUWtLWjBXelBJOW9Ea0RjMkZEZXZTcVRLTDBYMzluLWZFMnRxMW53VFFzMHdmSU92MWdMd0c4dmdSZlhzblpnanp5cEJxWWxMbEU5Yk5iaVhrcGtsa2Rhby1jMGxlblhmb2JkMmI4Sklia2tzN1JkOHpmbk5XOVpkWFJBRlN2RWx6YWM4ak02dUNRZ0k1WEw2WkJLandCdjRwd1hwU25Nc2Jfb2FtN3JtVmRudUIzenVDeHhONVJzdGlmUXlsZXJzZjcxZ2FMNzRjUm1mYlI0d3haUFUwR3RCSHJiVjRNTWh6ZmwzZ0VyWFpjSWZCbHR4LUlpWHVBdFJlbFl4ejNRcGt3TUFPWGFsWEUybGVTNnVfRUhPOThMNmFTZGZkd1BxcHNxUXV3d0JRUUlfM0F2V2xOQTRNRGpIRHRVTnRLQTdEV1FtdFFRRFVvbGtGT2FYREQ4WVZ2YjVjQlRfXS0tPjwvZz48L3N2Zz4=;" vertex="1" parent="1">
            <mxGeometry x="-200" y="-340" width="1222" height="1366" as="geometry" />
          </mxCell>
        </UserObject>
      </root>
    </mxGraphModel>
  </diagram>
</mxfile>
